<svg width="635" height="195" viewBox="0 0 635 195" fill="none" xmlns="http://www.w3.org/2000/svg">
<path d="M0.432 58.728C1.61067 58.1733 2.37333 57.4453 2.72 56.544C3.06667 55.6427 3.24 54.1867 3.24 52.176V51.136V21.6V20.56C3.24 18.4107 3.032 16.92 2.616 16.088C2.26933 15.1867 1.54133 14.4587 0.432 13.904V1.63199H26.952V13.904C26.0507 14.4587 25.4613 15.048 25.184 15.672C24.9067 16.2267 24.768 17.1973 24.768 18.584V20.56V21.808V28.672H33.088V21.808V20.56V18.792C33.088 17.336 32.9493 16.296 32.672 15.672C32.3947 15.048 31.7707 14.4587 30.8 13.904V1.63199H57.32V13.904C56.2107 14.4587 55.448 15.1867 55.032 16.088C54.6853 16.9893 54.512 18.4453 54.512 20.456V21.6V51.136V52.176C54.512 54.3253 54.6853 55.816 55.032 56.648C55.3787 57.48 56.1413 58.1733 57.32 58.728V71H30.8V58.728C31.7707 58.1733 32.3947 57.6187 32.672 57.064C32.9493 56.5093 33.088 55.5733 33.088 54.256V52.176V50.824V41.776H24.768V50.824V52.176V54.048C24.6987 55.4347 24.8027 56.44 25.08 57.064C25.4267 57.688 26.0507 58.2427 26.952 58.728V71H0.432V58.728ZM64.2132 58.728C65.3919 58.1733 66.1546 57.48 66.5013 56.648C66.8479 55.816 67.0213 54.3253 67.0213 52.176V51.136V21.6V20.56C67.0213 18.3413 66.8479 16.816 66.5013 15.984C66.1546 15.152 65.3919 14.4587 64.2132 13.904V1.63199H91.2533V13.904C90.0746 14.4587 89.3119 15.1867 88.9653 16.088C88.6879 16.92 88.5493 18.4107 88.5493 20.56V21.6V51.136V52.176C88.5493 53.2853 88.5839 54.1867 88.6533 54.88C88.7226 55.5733 88.8613 56.1627 89.0693 56.648C89.2773 57.1333 89.5546 57.5493 89.9013 57.896C90.2479 58.1733 90.6986 58.4507 91.2533 58.728V71H64.2132V58.728ZM112.797 58.728C114.183 57.9653 115.119 57.1333 115.605 56.232C116.159 55.2613 116.437 53.8053 116.437 51.864V50.72V15.88C114.842 16.0187 113.733 16.4 113.109 17.024C112.554 17.648 112.277 18.8267 112.277 20.56V21.288V33.144H96.8847V1.63199H156.685V33.144H141.293V21.288V20.56C141.293 18.8267 141.015 17.648 140.461 17.024C139.906 16.4 138.831 16.0187 137.237 15.88V50.72V51.864C137.237 53.8053 137.479 55.2613 137.965 56.232C138.45 57.1333 139.421 57.9653 140.877 58.728V71H112.797V58.728ZM203.797 58.728C205.183 57.9653 206.119 57.1333 206.605 56.232C207.159 55.2613 207.437 53.8053 207.437 51.864V50.72V15.88C205.842 16.0187 204.733 16.4 204.109 17.024C203.554 17.648 203.277 18.8267 203.277 20.56V21.288V33.144H187.885V1.63199H247.685V33.144H232.293V21.288V20.56C232.293 18.8267 232.015 17.648 231.461 17.024C230.906 16.4 229.831 16.0187 228.237 15.88V50.72V51.864C228.237 53.8053 228.479 55.2613 228.965 56.232C229.45 57.1333 230.421 57.9653 231.877 58.728V71H203.797V58.728ZM253.221 58.728C254.4 58.1733 255.162 57.4453 255.509 56.544C255.856 55.6427 256.029 54.1867 256.029 52.176V51.136V21.6V20.56C256.029 18.4107 255.821 16.92 255.405 16.088C255.058 15.1867 254.33 14.4587 253.221 13.904V1.63199H279.741V13.904C278.84 14.4587 278.25 15.048 277.973 15.672C277.696 16.2267 277.557 17.1973 277.557 18.584V20.56V21.808V28.672H285.877V21.808V20.56V18.792C285.877 17.336 285.738 16.296 285.461 15.672C285.184 15.048 284.56 14.4587 283.589 13.904V1.63199H310.109V13.904C309 14.4587 308.237 15.1867 307.821 16.088C307.474 16.9893 307.301 18.4453 307.301 20.456V21.6V51.136V52.176C307.301 54.3253 307.474 55.816 307.821 56.648C308.168 57.48 308.93 58.1733 310.109 58.728V71H283.589V58.728C284.56 58.1733 285.184 57.6187 285.461 57.064C285.738 56.5093 285.877 55.5733 285.877 54.256V52.176V50.824V41.776H277.557V50.824V52.176V54.048C277.488 55.4347 277.592 56.44 277.869 57.064C278.216 57.688 278.84 58.2427 279.741 58.728V71H253.221V58.728ZM317.002 58.728C318.181 58.1733 318.944 57.4453 319.29 56.544C319.637 55.5733 319.81 53.7707 319.81 51.136V21.6L319.706 19.416C319.706 17.6827 319.533 16.4693 319.186 15.776C318.84 15.0827 318.112 14.4587 317.002 13.904V1.63199H369.106V24.824H349.034V24.408V23.264C349.034 20.8373 348.584 19.104 347.682 18.064C346.85 17.024 345.394 16.504 343.314 16.504H342.378H341.338V28.36H355.066V41.984H341.338V56.128H341.754H342.17C343.557 56.128 344.701 56.024 345.602 55.816C346.504 55.608 347.197 55.2267 347.682 54.672C348.237 54.1173 348.584 53.3893 348.722 52.488C348.93 51.5173 349.034 50.2693 349.034 48.744V47.08V45.624H369.106V71H317.002V58.728ZM403.432 58.728C404.056 58.4507 404.541 58.1733 404.888 57.896C405.235 57.5493 405.512 57.1333 405.72 56.648C405.928 56.1627 406.067 55.5733 406.136 54.88C406.205 54.1173 406.24 53.1813 406.24 52.072V51.136V21.6V20.56C406.24 18.3413 406.067 16.816 405.72 15.984C405.373 15.152 404.611 14.4587 403.432 13.904V1.63199H453.768V25.864H435.152V22.432C435.152 21.2533 435.048 20.2827 434.84 19.52C434.701 18.7573 434.389 18.168 433.904 17.752C433.419 17.2667 432.725 16.9547 431.824 16.816C430.992 16.608 429.917 16.504 428.6 16.504H427.768V29.504H441.496V43.336H427.768V51.136V52.176V53.84C427.837 55.4347 428.115 56.5787 428.6 57.272C429.155 57.9653 430.021 58.4507 431.2 58.728V71H403.432V58.728ZM459.596 58.728C460.775 58.1733 461.537 57.48 461.884 56.648C462.231 55.816 462.404 54.3253 462.404 52.176V51.136V21.6V20.56C462.404 18.3413 462.231 16.816 461.884 15.984C461.537 15.152 460.775 14.4587 459.596 13.904V1.63199H489.652H492.044C495.788 1.70133 498.804 1.97866 501.092 2.464C503.449 2.87999 505.495 3.64266 507.228 4.752C512.081 7.94133 514.508 13.1413 514.508 20.352C514.508 28.8107 511.041 34.1493 504.108 36.368C505.841 36.8533 507.263 37.408 508.372 38.032C509.551 38.656 510.487 39.4187 511.18 40.32C511.873 41.152 512.359 42.192 512.636 43.44C512.983 44.688 513.156 46.1787 513.156 47.912V49.888V51.552C513.156 53.9787 513.329 55.6773 513.676 56.648C514.023 57.6187 514.751 58.312 515.86 58.728V71H492.564C492.079 68.8507 491.732 66.8053 491.524 64.864C491.385 62.8533 491.316 60.5307 491.316 57.896V55.296V54.36V53.528C491.316 53.1813 491.316 52.8693 491.316 52.592C491.385 52.2453 491.42 51.968 491.42 51.76C491.42 49.6107 491.177 48.016 490.692 46.976C490.276 45.8667 489.513 45.0693 488.404 44.584C487.919 44.3067 487.399 44.168 486.844 44.168C486.289 44.0987 485.319 44.064 483.932 44.064V51.136V52.176C483.932 54.3253 484.071 55.816 484.348 56.648C484.695 57.4107 485.457 58.104 486.636 58.728V71H459.596V58.728ZM483.932 30.232H485.076H486.636C488.785 30.1627 490.241 29.608 491.004 28.568C491.836 27.528 492.252 25.6907 492.252 23.056C492.252 20.2827 491.767 18.4453 490.796 17.544C489.895 16.6427 487.988 16.192 485.076 16.192H483.932V30.232ZM523.402 25.552V21.704C523.471 17.4747 524.026 14.0773 525.066 11.512C526.175 8.94666 527.978 6.76266 530.474 4.95999C532.623 3.36533 535.188 2.22133 538.17 1.528C541.151 0.76533 544.86 0.383998 549.298 0.383998C554.151 0.383998 558.138 0.834665 561.258 1.736C564.447 2.568 567.151 3.98933 569.37 6C571.38 7.80266 572.836 9.952 573.738 12.448C574.639 14.8747 575.09 17.96 575.09 21.704V25.552V47.08V50.928C575.02 55.1573 574.431 58.5547 573.322 61.12C572.282 63.6853 570.548 65.904 568.122 67.776C565.903 69.3707 563.303 70.5147 560.322 71.208C557.41 71.9707 553.735 72.352 549.298 72.352C544.375 72.352 540.319 71.9013 537.13 71C534.01 70.0987 531.34 68.6427 529.122 66.632C527.111 64.8987 525.655 62.784 524.754 60.288C523.852 57.792 523.402 54.672 523.402 50.928V47.08V25.552ZM553.354 24.2V22.848C553.354 21.3227 553.319 20.2133 553.25 19.52C553.18 18.8267 553.076 18.2027 552.938 17.648C552.66 16.8853 552.175 16.296 551.482 15.88C550.858 15.464 550.13 15.256 549.298 15.256C548.466 15.256 547.703 15.464 547.01 15.88C546.386 16.296 545.935 16.8853 545.658 17.648C545.45 18.2027 545.311 18.8613 545.242 19.624C545.172 20.3173 545.138 21.392 545.138 22.848V24.2V48.432V49.888C545.138 51.344 545.172 52.4187 545.242 53.112C545.311 53.8053 545.45 54.4293 545.658 54.984C545.935 55.7467 546.386 56.3707 547.01 56.856C547.703 57.272 548.466 57.48 549.298 57.48C550.13 57.48 550.858 57.272 551.482 56.856C552.175 56.3707 552.66 55.7467 552.938 54.984C553.076 54.4293 553.18 53.8053 553.25 53.112C553.319 52.4187 553.354 51.344 553.354 49.888V48.432V24.2ZM634.787 25.864H613.987V21.392C613.987 17.3013 612.635 15.256 609.931 15.256C608.683 15.256 607.677 15.7067 606.915 16.608C606.152 17.5093 605.771 18.7227 605.771 20.248V22.016V48.432V49.888C605.84 51.344 605.875 52.4187 605.875 53.112C605.944 53.8053 606.083 54.4293 606.29 54.984C606.845 56.648 608.093 57.48 610.035 57.48C611.56 57.48 612.635 56.96 613.259 55.92C613.883 54.88 614.195 53.1467 614.195 50.72V45.624H610.347V31.584H634.787V64.864C631.875 67.4293 628.373 69.336 624.283 70.584C620.261 71.7627 615.408 72.352 609.723 72.352C604.107 72.352 599.496 71.6933 595.891 70.376C592.285 69.0587 589.477 66.9787 587.467 64.136C586.427 62.7493 585.629 61.2587 585.075 59.664C584.589 58 584.277 55.9547 584.139 53.528C584.139 53.112 584.104 52.7653 584.035 52.488C584.035 52.2107 584.035 51.864 584.035 51.448C584.035 51.032 584.035 50.512 584.035 49.888C584.035 49.1947 584.035 48.2587 584.035 47.08V25.552V21.704C584.104 17.4747 584.659 14.0773 585.699 11.512C586.808 8.94666 588.611 6.76266 591.107 4.95999C595.197 1.90933 601.125 0.383998 608.891 0.383998C614.021 0.383998 618.771 1.04266 623.139 2.36C627.507 3.67733 631.389 5.65333 634.787 8.288V25.864ZM0.432 180.728C1.056 180.451 1.54133 180.173 1.888 179.896C2.304 179.549 2.58133 179.133 2.72 178.648C2.928 178.093 3.06667 177.4 3.136 176.568C3.20533 175.667 3.24 174.523 3.24 173.136V143.6V142.56V140.896C3.17067 139.509 2.928 138.469 2.512 137.776C2.16533 137.083 1.472 136.459 0.432 135.904V123.632H28.512H31.84C33.9893 123.632 35.896 123.736 37.56 123.944C39.224 124.083 40.7147 124.36 42.032 124.776C43.3493 125.123 44.528 125.608 45.568 126.232C46.6773 126.856 47.7173 127.619 48.688 128.52C49.7973 129.56 50.7333 130.635 51.496 131.744C52.2587 132.853 52.848 134.136 53.264 135.592C53.7493 137.048 54.0613 138.747 54.2 140.688C54.408 142.629 54.512 144.917 54.512 147.552C54.512 150.603 54.408 153.237 54.2 155.456C53.992 157.675 53.6453 159.616 53.16 161.28C52.6747 162.944 52.016 164.4 51.184 165.648C50.4213 166.827 49.416 167.936 48.168 168.976C46.9893 170.016 45.5333 170.883 43.8 171.576C42.0667 172.269 40.2293 172.755 38.288 173.032C37.5947 173.171 36.6587 173.275 35.48 173.344C34.3013 173.344 32.6373 173.344 30.488 173.344H28.616H24.768V173.864C24.768 176.152 24.976 177.747 25.392 178.648C25.808 179.48 26.744 180.173 28.2 180.728V193H0.432V180.728ZM24.768 158.576H26.016H27.68C29.6213 158.507 30.9733 158.021 31.736 157.12C32.568 156.219 32.984 154.763 32.984 152.752V151.712V145.264V144.328C32.984 142.248 32.568 140.757 31.736 139.856C30.904 138.885 29.552 138.4 27.68 138.4H26.016H24.768V158.576ZM61.8001 147.552V143.704C61.8695 139.475 62.4241 136.077 63.4641 133.512C64.5735 130.947 66.3761 128.763 68.8721 126.96C71.0215 125.365 73.5868 124.221 76.5681 123.528C79.5495 122.765 83.2588 122.384 87.6961 122.384C92.5495 122.384 96.5361 122.835 99.6561 123.736C102.845 124.568 105.549 125.989 107.768 128C109.779 129.803 111.235 131.952 112.136 134.448C113.037 136.875 113.488 139.96 113.488 143.704V147.552V169.08V172.928C113.419 177.157 112.829 180.555 111.72 183.12C110.68 185.685 108.947 187.904 106.52 189.776C104.301 191.371 101.701 192.515 98.7201 193.208C95.8081 193.971 92.1335 194.352 87.6961 194.352C82.7735 194.352 78.7175 193.901 75.5281 193C72.4081 192.099 69.7388 190.643 67.5201 188.632C65.5095 186.899 64.0535 184.784 63.1521 182.288C62.2508 179.792 61.8001 176.672 61.8001 172.928V169.08V147.552ZM91.7521 146.2V144.848C91.7521 143.323 91.7175 142.213 91.6481 141.52C91.5788 140.827 91.4748 140.203 91.3361 139.648C91.0588 138.885 90.5735 138.296 89.8801 137.88C89.2561 137.464 88.5281 137.256 87.6961 137.256C86.8641 137.256 86.1015 137.464 85.4081 137.88C84.7841 138.296 84.3335 138.885 84.0561 139.648C83.8481 140.203 83.7095 140.861 83.6401 141.624C83.5708 142.317 83.5361 143.392 83.5361 144.848V146.2V170.432V171.888C83.5361 173.344 83.5708 174.419 83.6401 175.112C83.7095 175.805 83.8481 176.429 84.0561 176.984C84.3335 177.747 84.7841 178.371 85.4081 178.856C86.1015 179.272 86.8641 179.48 87.6961 179.48C88.5281 179.48 89.2561 179.272 89.8801 178.856C90.5735 178.371 91.0588 177.747 91.3361 176.984C91.4748 176.429 91.5788 175.805 91.6481 175.112C91.7175 174.419 91.7521 173.344 91.7521 171.888V170.432V146.2ZM121.393 180.728C122.572 180.173 123.334 179.48 123.681 178.648C124.028 177.816 124.201 176.325 124.201 174.176V173.136V143.6V142.56C124.201 140.341 124.028 138.816 123.681 137.984C123.334 137.152 122.572 136.459 121.393 135.904V123.632H151.449H153.841C157.585 123.701 160.601 123.979 162.889 124.464C165.246 124.88 167.292 125.643 169.025 126.752C173.878 129.941 176.305 135.141 176.305 142.352C176.305 150.811 172.838 156.149 165.905 158.368C167.638 158.853 169.06 159.408 170.169 160.032C171.348 160.656 172.284 161.419 172.977 162.32C173.67 163.152 174.156 164.192 174.433 165.44C174.78 166.688 174.953 168.179 174.953 169.912V171.888V173.552C174.953 175.979 175.126 177.677 175.473 178.648C175.82 179.619 176.548 180.312 177.657 180.728V193H154.361C153.876 190.851 153.529 188.805 153.321 186.864C153.182 184.853 153.113 182.531 153.113 179.896V177.296V176.36V175.528C153.113 175.181 153.113 174.869 153.113 174.592C153.182 174.245 153.217 173.968 153.217 173.76C153.217 171.611 152.974 170.016 152.489 168.976C152.073 167.867 151.31 167.069 150.201 166.584C149.716 166.307 149.196 166.168 148.641 166.168C148.086 166.099 147.116 166.064 145.729 166.064V173.136V174.176C145.729 176.325 145.868 177.816 146.145 178.648C146.492 179.411 147.254 180.104 148.433 180.728V193H121.393V180.728ZM145.729 152.232H146.873H148.433C150.582 152.163 152.038 151.608 152.801 150.568C153.633 149.528 154.049 147.691 154.049 145.056C154.049 142.283 153.564 140.445 152.593 139.544C151.692 138.643 149.785 138.192 146.873 138.192H145.729V152.232ZM198.719 180.728C200.105 179.965 201.041 179.133 201.527 178.232C202.081 177.261 202.359 175.805 202.359 173.864V172.72V137.88C200.764 138.019 199.655 138.4 199.031 139.024C198.476 139.648 198.199 140.827 198.199 142.56V143.288V155.144H182.807V123.632H242.607V155.144H227.215V143.288V142.56C227.215 140.827 226.937 139.648 226.383 139.024C225.828 138.4 224.753 138.019 223.159 137.88V172.72V173.864C223.159 175.805 223.401 177.261 223.887 178.232C224.372 179.133 225.343 179.965 226.799 180.728V193H198.719V180.728ZM285.971 123.632L295.955 172.616C296.509 175.32 297.029 177.227 297.515 178.336C298.069 179.445 298.832 180.243 299.803 180.728V193H272.659V180.728C274.253 179.757 275.051 178.509 275.051 176.984C275.051 176.776 275.051 176.568 275.051 176.36C275.051 176.083 274.981 175.771 274.843 175.424L274.739 174.904H264.339C264.2 175.597 264.096 176.083 264.027 176.36C264.027 176.568 264.027 176.776 264.027 176.984C264.027 178.787 264.963 180.035 266.835 180.728V193H242.915V180.728C243.885 179.965 244.544 179.133 244.891 178.232C245.237 177.331 245.619 175.771 246.035 173.552L255.395 123.632H285.971ZM272.763 162.632L270.579 150.36C270.44 149.389 270.336 148.731 270.267 148.384C270.197 147.968 270.093 147.379 269.955 146.616C269.816 145.992 269.677 145.195 269.539 144.224C269.469 143.253 269.4 142.491 269.331 141.936L269.123 140.792H268.915C268.776 142.317 268.603 143.912 268.395 145.576C268.256 147.171 268.048 148.765 267.771 150.36L266.107 162.632H272.763ZM304.612 180.728C305.79 180.173 306.553 179.48 306.9 178.648C307.246 177.816 307.42 176.325 307.42 174.176V173.136V143.6V142.56C307.42 140.341 307.246 138.816 306.9 137.984C306.553 137.152 305.79 136.459 304.612 135.904V123.632H332.276V135.904C330.958 136.389 330.057 137.083 329.572 137.984C329.156 138.885 328.948 140.411 328.948 142.56V143.6V178.128H329.364H329.676C332.102 178.059 333.732 177.643 334.564 176.88C335.465 176.048 335.916 174.557 335.916 172.408V171.264V159.512H354.948V193H304.612V180.728Z" fill="white"/>
</svg>
