<svg width="514" height="68" viewBox="0 0 514 68" fill="none" xmlns="http://www.w3.org/2000/svg">
<path d="M0.771973 56.088C1.72397 55.64 2.33997 55.052 2.61997 54.324C2.89997 53.596 3.03997 52.42 3.03997 50.796V25.26C3.03997 23.524 2.87197 22.32 2.53597 21.648C2.25597 20.92 1.66797 20.332 0.771973 19.884V9.97199H22.192V19.884C21.464 20.332 20.988 20.808 20.764 21.312C20.54 21.76 20.428 22.544 20.428 23.664V31.812H27.148V23.832C27.148 22.656 27.036 21.816 26.812 21.312C26.588 20.808 26.084 20.332 25.3 19.884V9.97199H46.72V19.884C45.824 20.332 45.208 20.92 44.872 21.648C44.592 22.376 44.452 23.552 44.452 25.176V50.796C44.452 52.532 44.592 53.736 44.872 54.408C45.152 55.08 45.768 55.64 46.72 56.088V66H25.3V56.088C26.084 55.64 26.588 55.192 26.812 54.744C27.036 54.296 27.148 53.54 27.148 52.476V42.396H20.428V52.308C20.372 53.428 20.456 54.24 20.68 54.744C20.96 55.248 21.464 55.696 22.192 56.088V66H0.771973V56.088Z" fill="#D42D1F"/>
<path d="M52.2876 56.088C53.2396 55.64 53.8556 55.08 54.1356 54.408C54.4156 53.736 54.5556 52.532 54.5556 50.796V25.26C54.5556 23.468 54.4156 22.236 54.1356 21.564C53.8556 20.892 53.2396 20.332 52.2876 19.884V9.97199H74.1276V19.884C73.1756 20.332 72.5596 20.92 72.2796 21.648C72.0556 22.32 71.9436 23.524 71.9436 25.26V50.796C71.9436 51.692 71.9716 52.42 72.0276 52.98C72.0836 53.54 72.1956 54.016 72.3636 54.408C72.5316 54.8 72.7556 55.136 73.0356 55.416C73.3156 55.64 73.6796 55.864 74.1276 56.088V66H52.2876V56.088Z" fill="#D42D1F"/>
<path d="M91.5281 56.088C92.6481 55.472 93.4041 54.8 93.7961 54.072C94.2441 53.288 94.4681 52.112 94.4681 50.544V21.48C93.1801 21.592 92.2841 21.9 91.7801 22.404C91.3321 22.908 91.1081 23.86 91.1081 25.26V35.424H78.6761V9.97199H126.976V35.424H114.544V25.26C114.544 23.86 114.32 22.908 113.872 22.404C113.424 21.9 112.556 21.592 111.268 21.48V50.544C111.268 52.112 111.464 53.288 111.856 54.072C112.248 54.8 113.032 55.472 114.208 56.088V66H91.5281V56.088Z" fill="#D42D1F"/>
<path d="M165.028 56.088C166.148 55.472 166.904 54.8 167.296 54.072C167.744 53.288 167.968 52.112 167.968 50.544V21.48C166.68 21.592 165.784 21.9 165.28 22.404C164.832 22.908 164.608 23.86 164.608 25.26V35.424H152.176V9.97199H200.476V35.424H188.044V25.26C188.044 23.86 187.82 22.908 187.372 22.404C186.924 21.9 186.056 21.592 184.768 21.48V50.544C184.768 52.112 184.964 53.288 185.356 54.072C185.748 54.8 186.532 55.472 187.708 56.088V66H165.028V56.088Z" fill="#D42D1F"/>
<path d="M204.948 56.088C205.9 55.64 206.516 55.052 206.796 54.324C207.076 53.596 207.216 52.42 207.216 50.796V25.26C207.216 23.524 207.048 22.32 206.712 21.648C206.432 20.92 205.844 20.332 204.948 19.884V9.97199H226.368V19.884C225.64 20.332 225.164 20.808 224.94 21.312C224.716 21.76 224.604 22.544 224.604 23.664V31.812H231.324V23.832C231.324 22.656 231.212 21.816 230.988 21.312C230.764 20.808 230.26 20.332 229.476 19.884V9.97199H250.896V19.884C250 20.332 249.384 20.92 249.048 21.648C248.768 22.376 248.628 23.552 248.628 25.176V50.796C248.628 52.532 248.768 53.736 249.048 54.408C249.328 55.08 249.944 55.64 250.896 56.088V66H229.476V56.088C230.26 55.64 230.764 55.192 230.988 54.744C231.212 54.296 231.324 53.54 231.324 52.476V42.396H224.604V52.308C224.548 53.428 224.632 54.24 224.856 54.744C225.136 55.248 225.64 55.696 226.368 56.088V66H204.948V56.088Z" fill="#D42D1F"/>
<path d="M256.463 56.088C257.415 55.64 258.031 55.052 258.311 54.324C258.591 53.54 258.731 52.084 258.731 49.956V26.1L258.647 24.336C258.647 22.936 258.507 21.956 258.227 21.396C257.947 20.836 257.359 20.332 256.463 19.884V9.97199H298.547V28.704H282.335V27.444C282.335 25.484 281.971 24.084 281.243 23.244C280.571 22.404 279.395 21.984 277.715 21.984H276.119V31.56H287.207V42.564H276.119V53.988H276.791C277.911 53.988 278.835 53.904 279.563 53.736C280.291 53.568 280.851 53.26 281.243 52.812C281.691 52.364 281.971 51.776 282.083 51.048C282.251 50.264 282.335 49.256 282.335 48.024V45.504H298.547V66H256.463V56.088Z" fill="#D42D1F"/>
<path d="M326.272 56.088C326.776 55.864 327.168 55.64 327.448 55.416C327.728 55.136 327.952 54.8 328.12 54.408C328.288 54.016 328.4 53.54 328.456 52.98C328.512 52.364 328.54 51.608 328.54 50.712V25.26C328.54 23.468 328.4 22.236 328.12 21.564C327.84 20.892 327.224 20.332 326.272 19.884V9.97199H366.928V29.544H351.892V26.772C351.892 25.82 351.808 25.036 351.64 24.42C351.528 23.804 351.276 23.328 350.884 22.992C350.492 22.6 349.932 22.348 349.204 22.236C348.532 22.068 347.664 21.984 346.6 21.984H345.928V32.484H357.016V43.656H345.928V52.14C345.984 53.428 346.208 54.352 346.6 54.912C347.048 55.472 347.748 55.864 348.7 56.088V66H326.272V56.088Z" fill="#D42D1F"/>
<path d="M371.635 56.088C372.587 55.64 373.203 55.08 373.483 54.408C373.763 53.736 373.903 52.532 373.903 50.796V25.26C373.903 23.468 373.763 22.236 373.483 21.564C373.203 20.892 372.587 20.332 371.635 19.884V9.97199H397.843C400.867 10.028 403.303 10.252 405.151 10.644C407.055 10.98 408.707 11.596 410.107 12.492C414.027 15.068 415.987 19.268 415.987 25.092C415.987 31.924 413.187 36.236 407.587 38.028C408.987 38.42 410.135 38.868 411.031 39.372C411.983 39.876 412.739 40.492 413.299 41.22C413.859 41.892 414.251 42.732 414.475 43.74C414.755 44.748 414.895 45.952 414.895 47.352V50.292C414.895 52.252 415.035 53.624 415.315 54.408C415.595 55.192 416.183 55.752 417.079 56.088V66H398.263C397.871 64.264 397.591 62.612 397.423 61.044C397.311 59.42 397.255 57.544 397.255 55.416V51.888C397.255 51.608 397.255 51.356 397.255 51.132C397.311 50.852 397.339 50.628 397.339 50.46C397.339 48.724 397.143 47.436 396.751 46.596C396.415 45.7 395.799 45.056 394.903 44.664C394.511 44.44 394.091 44.328 393.643 44.328C393.195 44.272 392.411 44.244 391.291 44.244V50.796C391.291 52.532 391.403 53.736 391.627 54.408C391.907 55.024 392.523 55.584 393.475 56.088V66H371.635V56.088ZM391.291 33.072H393.475C395.211 33.016 396.387 32.568 397.003 31.728C397.675 30.888 398.011 29.404 398.011 27.276C398.011 25.036 397.619 23.552 396.835 22.824C396.107 22.096 394.567 21.732 392.215 21.732H391.291V33.072Z" fill="#D42D1F"/>
<path d="M423.171 26.184C423.227 22.768 423.675 20.024 424.515 17.952C425.411 15.88 426.867 14.116 428.883 12.66C430.619 11.372 432.691 10.448 435.099 9.88799C437.507 9.27199 440.503 8.96399 444.087 8.96399C448.007 8.96399 451.227 9.32799 453.747 10.056C456.323 10.728 458.507 11.876 460.299 13.5C461.923 14.956 463.099 16.692 463.827 18.708C464.555 20.668 464.919 23.16 464.919 26.184V49.788C464.863 53.204 464.387 55.948 463.491 58.02C462.651 60.092 461.251 61.884 459.291 63.396C457.499 64.684 455.399 65.608 452.991 66.168C450.639 66.784 447.671 67.092 444.087 67.092C440.111 67.092 436.835 66.728 434.259 66C431.739 65.272 429.583 64.096 427.791 62.472C426.167 61.072 424.991 59.364 424.263 57.348C423.535 55.332 423.171 52.812 423.171 49.788V26.184ZM447.363 27.108C447.363 25.876 447.335 24.98 447.279 24.42C447.223 23.86 447.139 23.356 447.027 22.908C446.803 22.292 446.411 21.816 445.851 21.48C445.347 21.144 444.759 20.976 444.087 20.976C443.415 20.976 442.799 21.144 442.239 21.48C441.735 21.816 441.371 22.292 441.147 22.908C440.979 23.356 440.867 23.888 440.811 24.504C440.755 25.064 440.727 25.932 440.727 27.108V48.948C440.727 50.124 440.755 50.992 440.811 51.552C440.867 52.112 440.979 52.616 441.147 53.064C441.371 53.68 441.735 54.184 442.239 54.576C442.799 54.912 443.415 55.08 444.087 55.08C444.759 55.08 445.347 54.912 445.851 54.576C446.411 54.184 446.803 53.68 447.027 53.064C447.139 52.616 447.223 52.112 447.279 51.552C447.335 50.992 447.363 50.124 447.363 48.948V27.108Z" fill="#D42D1F"/>
<path d="M513.135 29.544H496.335V25.932C496.335 22.628 495.243 20.976 493.059 20.976C492.051 20.976 491.239 21.34 490.623 22.068C490.007 22.796 489.699 23.776 489.699 25.008V48.948C489.755 50.124 489.783 50.992 489.783 51.552C489.839 52.112 489.951 52.616 490.119 53.064C490.567 54.408 491.575 55.08 493.143 55.08C494.375 55.08 495.243 54.66 495.747 53.82C496.251 52.98 496.503 51.58 496.503 49.62V45.504H493.395V34.164H513.135V61.044C510.783 63.116 507.955 64.656 504.651 65.664C501.403 66.616 497.483 67.092 492.891 67.092C488.355 67.092 484.631 66.56 481.719 65.496C478.807 64.432 476.539 62.752 474.915 60.456C474.075 59.336 473.431 58.132 472.983 56.844C472.591 55.5 472.339 53.848 472.227 51.888C472.227 51.552 472.199 51.272 472.143 51.048C472.143 50.824 472.143 50.544 472.143 50.208C472.143 49.872 472.143 49.452 472.143 48.948C472.143 48.388 472.143 47.632 472.143 46.68V26.184C472.199 22.768 472.647 20.024 473.487 17.952C474.383 15.88 475.839 14.116 477.855 12.66C481.159 10.196 485.947 8.96399 492.219 8.96399C496.363 8.96399 500.199 9.49599 503.727 10.56C507.255 11.624 510.391 13.22 513.135 15.348V29.544Z" fill="#D42D1F"/>
<path d="M0.771973 48.088C1.72397 47.64 2.33997 47.052 2.61997 46.324C2.89997 45.596 3.03997 44.42 3.03997 42.796V17.26C3.03997 15.524 2.87197 14.32 2.53597 13.648C2.25597 12.92 1.66797 12.332 0.771973 11.884V1.97199H22.192V11.884C21.464 12.332 20.988 12.808 20.764 13.312C20.54 13.76 20.428 14.544 20.428 15.664V23.812H27.148V15.832C27.148 14.656 27.036 13.816 26.812 13.312C26.588 12.808 26.084 12.332 25.3 11.884V1.97199H46.72V11.884C45.824 12.332 45.208 12.92 44.872 13.648C44.592 14.376 44.452 15.552 44.452 17.176V42.796C44.452 44.532 44.592 45.736 44.872 46.408C45.152 47.08 45.768 47.64 46.72 48.088V58H25.3V48.088C26.084 47.64 26.588 47.192 26.812 46.744C27.036 46.296 27.148 45.54 27.148 44.476V34.396H20.428V44.308C20.372 45.428 20.456 46.24 20.68 46.744C20.96 47.248 21.464 47.696 22.192 48.088V58H0.771973V48.088Z" fill="#F4B23E"/>
<path d="M52.2876 48.088C53.2396 47.64 53.8556 47.08 54.1356 46.408C54.4156 45.736 54.5556 44.532 54.5556 42.796V17.26C54.5556 15.468 54.4156 14.236 54.1356 13.564C53.8556 12.892 53.2396 12.332 52.2876 11.884V1.97199H74.1276V11.884C73.1756 12.332 72.5596 12.92 72.2796 13.648C72.0556 14.32 71.9436 15.524 71.9436 17.26V42.796C71.9436 43.692 71.9716 44.42 72.0276 44.98C72.0836 45.54 72.1956 46.016 72.3636 46.408C72.5316 46.8 72.7556 47.136 73.0356 47.416C73.3156 47.64 73.6796 47.864 74.1276 48.088V58H52.2876V48.088Z" fill="#F4B23E"/>
<path d="M91.5281 48.088C92.6481 47.472 93.4041 46.8 93.7961 46.072C94.2441 45.288 94.4681 44.112 94.4681 42.544V13.48C93.1801 13.592 92.2841 13.9 91.7801 14.404C91.3321 14.908 91.1081 15.86 91.1081 17.26V27.424H78.6761V1.97199H126.976V27.424H114.544V17.26C114.544 15.86 114.32 14.908 113.872 14.404C113.424 13.9 112.556 13.592 111.268 13.48V42.544C111.268 44.112 111.464 45.288 111.856 46.072C112.248 46.8 113.032 47.472 114.208 48.088V58H91.5281V48.088Z" fill="#F4B23E"/>
<path d="M165.028 48.088C166.148 47.472 166.904 46.8 167.296 46.072C167.744 45.288 167.968 44.112 167.968 42.544V13.48C166.68 13.592 165.784 13.9 165.28 14.404C164.832 14.908 164.608 15.86 164.608 17.26V27.424H152.176V1.97199H200.476V27.424H188.044V17.26C188.044 15.86 187.82 14.908 187.372 14.404C186.924 13.9 186.056 13.592 184.768 13.48V42.544C184.768 44.112 184.964 45.288 185.356 46.072C185.748 46.8 186.532 47.472 187.708 48.088V58H165.028V48.088Z" fill="#F4B23E"/>
<path d="M204.948 48.088C205.9 47.64 206.516 47.052 206.796 46.324C207.076 45.596 207.216 44.42 207.216 42.796V17.26C207.216 15.524 207.048 14.32 206.712 13.648C206.432 12.92 205.844 12.332 204.948 11.884V1.97199H226.368V11.884C225.64 12.332 225.164 12.808 224.94 13.312C224.716 13.76 224.604 14.544 224.604 15.664V23.812H231.324V15.832C231.324 14.656 231.212 13.816 230.988 13.312C230.764 12.808 230.26 12.332 229.476 11.884V1.97199H250.896V11.884C250 12.332 249.384 12.92 249.048 13.648C248.768 14.376 248.628 15.552 248.628 17.176V42.796C248.628 44.532 248.768 45.736 249.048 46.408C249.328 47.08 249.944 47.64 250.896 48.088V58H229.476V48.088C230.26 47.64 230.764 47.192 230.988 46.744C231.212 46.296 231.324 45.54 231.324 44.476V34.396H224.604V44.308C224.548 45.428 224.632 46.24 224.856 46.744C225.136 47.248 225.64 47.696 226.368 48.088V58H204.948V48.088Z" fill="#F4B23E"/>
<path d="M256.463 48.088C257.415 47.64 258.031 47.052 258.311 46.324C258.591 45.54 258.731 44.084 258.731 41.956V18.1L258.647 16.336C258.647 14.936 258.507 13.956 258.227 13.396C257.947 12.836 257.359 12.332 256.463 11.884V1.97199H298.547V20.704H282.335V19.444C282.335 17.484 281.971 16.084 281.243 15.244C280.571 14.404 279.395 13.984 277.715 13.984H276.119V23.56H287.207V34.564H276.119V45.988H276.791C277.911 45.988 278.835 45.904 279.563 45.736C280.291 45.568 280.851 45.26 281.243 44.812C281.691 44.364 281.971 43.776 282.083 43.048C282.251 42.264 282.335 41.256 282.335 40.024V37.504H298.547V58H256.463V48.088Z" fill="#F4B23E"/>
<path d="M326.272 48.088C326.776 47.864 327.168 47.64 327.448 47.416C327.728 47.136 327.952 46.8 328.12 46.408C328.288 46.016 328.4 45.54 328.456 44.98C328.512 44.364 328.54 43.608 328.54 42.712V17.26C328.54 15.468 328.4 14.236 328.12 13.564C327.84 12.892 327.224 12.332 326.272 11.884V1.97199H366.928V21.544H351.892V18.772C351.892 17.82 351.808 17.036 351.64 16.42C351.528 15.804 351.276 15.328 350.884 14.992C350.492 14.6 349.932 14.348 349.204 14.236C348.532 14.068 347.664 13.984 346.6 13.984H345.928V24.484H357.016V35.656H345.928V44.14C345.984 45.428 346.208 46.352 346.6 46.912C347.048 47.472 347.748 47.864 348.7 48.088V58H326.272V48.088Z" fill="#F4B23E"/>
<path d="M371.635 48.088C372.587 47.64 373.203 47.08 373.483 46.408C373.763 45.736 373.903 44.532 373.903 42.796V17.26C373.903 15.468 373.763 14.236 373.483 13.564C373.203 12.892 372.587 12.332 371.635 11.884V1.97199H397.843C400.867 2.02799 403.303 2.25199 405.151 2.64399C407.055 2.97999 408.707 3.59599 410.107 4.49199C414.027 7.06799 415.987 11.268 415.987 17.092C415.987 23.924 413.187 28.236 407.587 30.028C408.987 30.42 410.135 30.868 411.031 31.372C411.983 31.876 412.739 32.492 413.299 33.22C413.859 33.892 414.251 34.732 414.475 35.74C414.755 36.748 414.895 37.952 414.895 39.352V42.292C414.895 44.252 415.035 45.624 415.315 46.408C415.595 47.192 416.183 47.752 417.079 48.088V58H398.263C397.871 56.264 397.591 54.612 397.423 53.044C397.311 51.42 397.255 49.544 397.255 47.416V43.888C397.255 43.608 397.255 43.356 397.255 43.132C397.311 42.852 397.339 42.628 397.339 42.46C397.339 40.724 397.143 39.436 396.751 38.596C396.415 37.7 395.799 37.056 394.903 36.664C394.511 36.44 394.091 36.328 393.643 36.328C393.195 36.272 392.411 36.244 391.291 36.244V42.796C391.291 44.532 391.403 45.736 391.627 46.408C391.907 47.024 392.523 47.584 393.475 48.088V58H371.635V48.088ZM391.291 25.072H393.475C395.211 25.016 396.387 24.568 397.003 23.728C397.675 22.888 398.011 21.404 398.011 19.276C398.011 17.036 397.619 15.552 396.835 14.824C396.107 14.096 394.567 13.732 392.215 13.732H391.291V25.072Z" fill="#F4B23E"/>
<path d="M423.171 18.184C423.227 14.768 423.675 12.024 424.515 9.95199C425.411 7.87999 426.867 6.11599 428.883 4.65999C430.619 3.37199 432.691 2.44799 435.099 1.88799C437.507 1.27199 440.503 0.963989 444.087 0.963989C448.007 0.963989 451.227 1.32799 453.747 2.05599C456.323 2.72799 458.507 3.87599 460.299 5.49999C461.923 6.95599 463.099 8.69199 463.827 10.708C464.555 12.668 464.919 15.16 464.919 18.184V41.788C464.863 45.204 464.387 47.948 463.491 50.02C462.651 52.092 461.251 53.884 459.291 55.396C457.499 56.684 455.399 57.608 452.991 58.168C450.639 58.784 447.671 59.092 444.087 59.092C440.111 59.092 436.835 58.728 434.259 58C431.739 57.272 429.583 56.096 427.791 54.472C426.167 53.072 424.991 51.364 424.263 49.348C423.535 47.332 423.171 44.812 423.171 41.788V18.184ZM447.363 19.108C447.363 17.876 447.335 16.98 447.279 16.42C447.223 15.86 447.139 15.356 447.027 14.908C446.803 14.292 446.411 13.816 445.851 13.48C445.347 13.144 444.759 12.976 444.087 12.976C443.415 12.976 442.799 13.144 442.239 13.48C441.735 13.816 441.371 14.292 441.147 14.908C440.979 15.356 440.867 15.888 440.811 16.504C440.755 17.064 440.727 17.932 440.727 19.108V40.948C440.727 42.124 440.755 42.992 440.811 43.552C440.867 44.112 440.979 44.616 441.147 45.064C441.371 45.68 441.735 46.184 442.239 46.576C442.799 46.912 443.415 47.08 444.087 47.08C444.759 47.08 445.347 46.912 445.851 46.576C446.411 46.184 446.803 45.68 447.027 45.064C447.139 44.616 447.223 44.112 447.279 43.552C447.335 42.992 447.363 42.124 447.363 40.948V19.108Z" fill="#F4B23E"/>
<path d="M513.135 21.544H496.335V17.932C496.335 14.628 495.243 12.976 493.059 12.976C492.051 12.976 491.239 13.34 490.623 14.068C490.007 14.796 489.699 15.776 489.699 17.008V40.948C489.755 42.124 489.783 42.992 489.783 43.552C489.839 44.112 489.951 44.616 490.119 45.064C490.567 46.408 491.575 47.08 493.143 47.08C494.375 47.08 495.243 46.66 495.747 45.82C496.251 44.98 496.503 43.58 496.503 41.62V37.504H493.395V26.164H513.135V53.044C510.783 55.116 507.955 56.656 504.651 57.664C501.403 58.616 497.483 59.092 492.891 59.092C488.355 59.092 484.631 58.56 481.719 57.496C478.807 56.432 476.539 54.752 474.915 52.456C474.075 51.336 473.431 50.132 472.983 48.844C472.591 47.5 472.339 45.848 472.227 43.888C472.227 43.552 472.199 43.272 472.143 43.048C472.143 42.824 472.143 42.544 472.143 42.208C472.143 41.872 472.143 41.452 472.143 40.948C472.143 40.388 472.143 39.632 472.143 38.68V18.184C472.199 14.768 472.647 12.024 473.487 9.95199C474.383 7.87999 475.839 6.11599 477.855 4.65999C481.159 2.19599 485.947 0.963989 492.219 0.963989C496.363 0.963989 500.199 1.49599 503.727 2.55999C507.255 3.62399 510.391 5.21999 513.135 7.34799V21.544Z" fill="#F4B23E"/>
</svg>
