<svg width="622" height="194" viewBox="0 0 622 194" fill="none" xmlns="http://www.w3.org/2000/svg">
<path d="M0.432 57.728C1.61067 57.1733 2.37333 56.4453 2.72 55.544C3.06667 54.6427 3.24 53.1867 3.24 51.176V50.136V20.6V19.56C3.24 17.4107 3.032 15.92 2.616 15.088C2.26933 14.1867 1.54133 13.4587 0.432 12.904V0.631994H26.952V12.904C26.0507 13.4587 25.4613 14.048 25.184 14.672C24.9067 15.2267 24.768 16.1973 24.768 17.584V19.56V20.808V27.672H33.088V20.808V19.56V17.792C33.088 16.336 32.9493 15.296 32.672 14.672C32.3947 14.048 31.7707 13.4587 30.8 12.904V0.631994H57.32V12.904C56.2107 13.4587 55.448 14.1867 55.032 15.088C54.6853 15.9893 54.512 17.4453 54.512 19.456V20.6V50.136V51.176C54.512 53.3253 54.6853 54.816 55.032 55.648C55.3787 56.48 56.1413 57.1733 57.32 57.728V70H30.8V57.728C31.7707 57.1733 32.3947 56.6187 32.672 56.064C32.9493 55.5093 33.088 54.5733 33.088 53.256V51.176V49.824V40.776H24.768V49.824V51.176V53.048C24.6987 54.4347 24.8027 55.44 25.08 56.064C25.4267 56.688 26.0507 57.2427 26.952 57.728V70H0.432V57.728ZM64.2132 57.728C65.3919 57.1733 66.1546 56.48 66.5013 55.648C66.8479 54.816 67.0213 53.3253 67.0213 51.176V50.136V20.6V19.56C67.0213 17.3413 66.8479 15.816 66.5013 14.984C66.1546 14.152 65.3919 13.4587 64.2132 12.904V0.631994H91.2533V12.904C90.0746 13.4587 89.3119 14.1867 88.9653 15.088C88.6879 15.92 88.5493 17.4107 88.5493 19.56V20.6V50.136V51.176C88.5493 52.2853 88.5839 53.1867 88.6533 53.88C88.7226 54.5733 88.8613 55.1627 89.0693 55.648C89.2773 56.1333 89.5546 56.5493 89.9013 56.896C90.2479 57.1733 90.6986 57.4507 91.2533 57.728V70H64.2132V57.728ZM112.797 57.728C114.183 56.9653 115.119 56.1333 115.605 55.232C116.159 54.2613 116.437 52.8053 116.437 50.864V49.72V14.88C114.842 15.0187 113.733 15.4 113.109 16.024C112.554 16.648 112.277 17.8267 112.277 19.56V20.288V32.144H96.8847V0.631994H156.685V32.144H141.293V20.288V19.56C141.293 17.8267 141.015 16.648 140.461 16.024C139.906 15.4 138.831 15.0187 137.237 14.88V49.72V50.864C137.237 52.8053 137.479 54.2613 137.965 55.232C138.45 56.1333 139.421 56.9653 140.877 57.728V70H112.797V57.728ZM203.797 57.728C205.183 56.9653 206.119 56.1333 206.605 55.232C207.159 54.2613 207.437 52.8053 207.437 50.864V49.72V14.88C205.842 15.0187 204.733 15.4 204.109 16.024C203.554 16.648 203.277 17.8267 203.277 19.56V20.288V32.144H187.885V0.631994H247.685V32.144H232.293V20.288V19.56C232.293 17.8267 232.015 16.648 231.461 16.024C230.906 15.4 229.831 15.0187 228.237 14.88V49.72V50.864C228.237 52.8053 228.479 54.2613 228.965 55.232C229.45 56.1333 230.421 56.9653 231.877 57.728V70H203.797V57.728ZM253.221 57.728C254.4 57.1733 255.162 56.4453 255.509 55.544C255.856 54.6427 256.029 53.1867 256.029 51.176V50.136V20.6V19.56C256.029 17.4107 255.821 15.92 255.405 15.088C255.058 14.1867 254.33 13.4587 253.221 12.904V0.631994H279.741V12.904C278.84 13.4587 278.25 14.048 277.973 14.672C277.696 15.2267 277.557 16.1973 277.557 17.584V19.56V20.808V27.672H285.877V20.808V19.56V17.792C285.877 16.336 285.738 15.296 285.461 14.672C285.184 14.048 284.56 13.4587 283.589 12.904V0.631994H310.109V12.904C309 13.4587 308.237 14.1867 307.821 15.088C307.474 15.9893 307.301 17.4453 307.301 19.456V20.6V50.136V51.176C307.301 53.3253 307.474 54.816 307.821 55.648C308.168 56.48 308.93 57.1733 310.109 57.728V70H283.589V57.728C284.56 57.1733 285.184 56.6187 285.461 56.064C285.738 55.5093 285.877 54.5733 285.877 53.256V51.176V49.824V40.776H277.557V49.824V51.176V53.048C277.488 54.4347 277.592 55.44 277.869 56.064C278.216 56.688 278.84 57.2427 279.741 57.728V70H253.221V57.728ZM317.002 57.728C318.181 57.1733 318.944 56.4453 319.29 55.544C319.637 54.5733 319.81 52.7707 319.81 50.136V20.6L319.706 18.416C319.706 16.6827 319.533 15.4693 319.186 14.776C318.84 14.0827 318.112 13.4587 317.002 12.904V0.631994H369.106V23.824H349.034V23.408V22.264C349.034 19.8373 348.584 18.104 347.682 17.064C346.85 16.024 345.394 15.504 343.314 15.504H342.378H341.338V27.36H355.066V40.984H341.338V55.128H341.754H342.17C343.557 55.128 344.701 55.024 345.602 54.816C346.504 54.608 347.197 54.2267 347.682 53.672C348.237 53.1173 348.584 52.3893 348.722 51.488C348.93 50.5173 349.034 49.2693 349.034 47.744V46.08V44.624H369.106V70H317.002V57.728ZM0.432 179.728C1.056 179.451 1.54133 179.173 1.888 178.896C2.23467 178.549 2.512 178.133 2.72 177.648C2.928 177.163 3.06667 176.573 3.136 175.88C3.20533 175.117 3.24 174.181 3.24 173.072V172.136V142.6V141.56C3.24 139.341 3.06667 137.816 2.72 136.984C2.37333 136.152 1.61067 135.459 0.432 134.904V122.632H50.768V146.864H32.152V143.432C32.152 142.253 32.048 141.283 31.84 140.52C31.7013 139.757 31.3893 139.168 30.904 138.752C30.4187 138.267 29.7253 137.955 28.824 137.816C27.992 137.608 26.9173 137.504 25.6 137.504H24.768V150.504H38.496V164.336H24.768V172.136V173.176V174.84C24.8373 176.435 25.1147 177.579 25.6 178.272C26.1547 178.965 27.0213 179.451 28.2 179.728V192H0.432V179.728ZM56.5961 179.728C57.7747 179.173 58.5374 178.48 58.8841 177.648C59.2307 176.816 59.4041 175.325 59.4041 173.176V172.136V142.6V141.56C59.4041 139.341 59.2307 137.816 58.8841 136.984C58.5374 136.152 57.7747 135.459 56.5961 134.904V122.632H86.6521H89.0441C92.7881 122.701 95.8041 122.979 98.0921 123.464C100.449 123.88 102.495 124.643 104.228 125.752C109.081 128.941 111.508 134.141 111.508 141.352C111.508 149.811 108.041 155.149 101.108 157.368C102.841 157.853 104.263 158.408 105.372 159.032C106.551 159.656 107.487 160.419 108.18 161.32C108.873 162.152 109.359 163.192 109.636 164.44C109.983 165.688 110.156 167.179 110.156 168.912V170.888V172.552C110.156 174.979 110.329 176.677 110.676 177.648C111.023 178.619 111.751 179.312 112.86 179.728V192H89.5641C89.0787 189.851 88.7321 187.805 88.5241 185.864C88.3854 183.853 88.3161 181.531 88.3161 178.896V176.296V175.36V174.528C88.3161 174.181 88.3161 173.869 88.3161 173.592C88.3854 173.245 88.4201 172.968 88.4201 172.76C88.4201 170.611 88.1774 169.016 87.6921 167.976C87.2761 166.867 86.5134 166.069 85.4041 165.584C84.9187 165.307 84.3987 165.168 83.8441 165.168C83.2894 165.099 82.3187 165.064 80.9321 165.064V172.136V173.176C80.9321 175.325 81.0707 176.816 81.3481 177.648C81.6947 178.411 82.4574 179.104 83.6361 179.728V192H56.5961V179.728ZM80.9321 151.232H82.0761H83.6361C85.7854 151.163 87.2414 150.608 88.0041 149.568C88.8361 148.528 89.2521 146.691 89.2521 144.056C89.2521 141.283 88.7667 139.445 87.7961 138.544C86.8947 137.643 84.9881 137.192 82.0761 137.192H80.9321V151.232ZM120.402 146.552V142.704C120.471 138.475 121.026 135.077 122.066 132.512C123.175 129.947 124.978 127.763 127.474 125.96C129.623 124.365 132.188 123.221 135.17 122.528C138.151 121.765 141.86 121.384 146.298 121.384C151.151 121.384 155.138 121.835 158.258 122.736C161.447 123.568 164.151 124.989 166.37 127C168.38 128.803 169.836 130.952 170.738 133.448C171.639 135.875 172.09 138.96 172.09 142.704V146.552V168.08V171.928C172.02 176.157 171.431 179.555 170.322 182.12C169.282 184.685 167.548 186.904 165.122 188.776C162.903 190.371 160.303 191.515 157.322 192.208C154.41 192.971 150.735 193.352 146.298 193.352C141.375 193.352 137.319 192.901 134.13 192C131.01 191.099 128.34 189.643 126.122 187.632C124.111 185.899 122.655 183.784 121.754 181.288C120.852 178.792 120.402 175.672 120.402 171.928V168.08V146.552ZM150.354 145.2V143.848C150.354 142.323 150.319 141.213 150.25 140.52C150.18 139.827 150.076 139.203 149.938 138.648C149.66 137.885 149.175 137.296 148.482 136.88C147.858 136.464 147.13 136.256 146.298 136.256C145.466 136.256 144.703 136.464 144.01 136.88C143.386 137.296 142.935 137.885 142.658 138.648C142.45 139.203 142.311 139.861 142.242 140.624C142.172 141.317 142.138 142.392 142.138 143.848V145.2V169.432V170.888C142.138 172.344 142.172 173.419 142.242 174.112C142.311 174.805 142.45 175.429 142.658 175.984C142.935 176.747 143.386 177.371 144.01 177.856C144.703 178.272 145.466 178.48 146.298 178.48C147.13 178.48 147.858 178.272 148.482 177.856C149.175 177.371 149.66 176.747 149.938 175.984C150.076 175.429 150.18 174.805 150.25 174.112C150.319 173.419 150.354 172.344 150.354 170.888V169.432V145.2ZM231.787 146.864H210.987V142.392C210.987 138.301 209.635 136.256 206.931 136.256C205.683 136.256 204.677 136.707 203.915 137.608C203.152 138.509 202.771 139.723 202.771 141.248V143.016V169.432V170.888C202.84 172.344 202.875 173.419 202.875 174.112C202.944 174.805 203.083 175.429 203.29 175.984C203.845 177.648 205.093 178.48 207.035 178.48C208.56 178.48 209.635 177.96 210.259 176.92C210.883 175.88 211.195 174.147 211.195 171.72V166.624H207.347V152.584H231.787V185.864C228.875 188.429 225.373 190.336 221.283 191.584C217.261 192.763 212.408 193.352 206.723 193.352C201.107 193.352 196.496 192.693 192.891 191.376C189.285 190.059 186.477 187.979 184.467 185.136C183.427 183.749 182.629 182.259 182.075 180.664C181.589 179 181.277 176.955 181.139 174.528C181.139 174.112 181.104 173.765 181.035 173.488C181.035 173.211 181.035 172.864 181.035 172.448C181.035 172.032 181.035 171.512 181.035 170.888C181.035 170.195 181.035 169.259 181.035 168.08V146.552V142.704C181.104 138.475 181.659 135.077 182.699 132.512C183.808 129.947 185.611 127.763 188.107 125.96C192.197 122.909 198.125 121.384 205.891 121.384C211.021 121.384 215.771 122.043 220.139 123.36C224.507 124.677 228.389 126.653 231.787 129.288V146.864ZM267.135 179.728C267.759 179.451 268.244 179.173 268.591 178.896C269.007 178.549 269.284 178.133 269.423 177.648C269.631 177.093 269.77 176.4 269.839 175.568C269.908 174.667 269.943 173.523 269.943 172.136V142.6V141.56V139.896C269.874 138.509 269.631 137.469 269.215 136.776C268.868 136.083 268.175 135.459 267.135 134.904V122.632H295.215H298.543C300.692 122.632 302.599 122.736 304.263 122.944C305.927 123.083 307.418 123.36 308.735 123.776C310.052 124.123 311.231 124.608 312.271 125.232C313.38 125.856 314.42 126.619 315.391 127.52C316.5 128.56 317.436 129.635 318.199 130.744C318.962 131.853 319.551 133.136 319.967 134.592C320.452 136.048 320.764 137.747 320.903 139.688C321.111 141.629 321.215 143.917 321.215 146.552C321.215 149.603 321.111 152.237 320.903 154.456C320.695 156.675 320.348 158.616 319.863 160.28C319.378 161.944 318.719 163.4 317.887 164.648C317.124 165.827 316.119 166.936 314.871 167.976C313.692 169.016 312.236 169.883 310.503 170.576C308.77 171.269 306.932 171.755 304.991 172.032C304.298 172.171 303.362 172.275 302.183 172.344C301.004 172.344 299.34 172.344 297.191 172.344H295.319H291.471V172.864C291.471 175.152 291.679 176.747 292.095 177.648C292.511 178.48 293.447 179.173 294.903 179.728V192H267.135V179.728ZM291.471 157.576H292.719H294.383C296.324 157.507 297.676 157.021 298.439 156.12C299.271 155.219 299.687 153.763 299.687 151.752V150.712V144.264V143.328C299.687 141.248 299.271 139.757 298.439 138.856C297.607 137.885 296.255 137.4 294.383 137.4H292.719H291.471V157.576ZM328.503 146.552V142.704C328.573 138.475 329.127 135.077 330.167 132.512C331.277 129.947 333.079 127.763 335.575 125.96C337.725 124.365 340.29 123.221 343.271 122.528C346.253 121.765 349.962 121.384 354.399 121.384C359.253 121.384 363.239 121.835 366.359 122.736C369.549 123.568 372.253 124.989 374.471 127C376.482 128.803 377.938 130.952 378.839 133.448C379.741 135.875 380.191 138.96 380.191 142.704V146.552V168.08V171.928C380.122 176.157 379.533 179.555 378.423 182.12C377.383 184.685 375.65 186.904 373.223 188.776C371.005 190.371 368.405 191.515 365.423 192.208C362.511 192.971 358.837 193.352 354.399 193.352C349.477 193.352 345.421 192.901 342.231 192C339.111 191.099 336.442 189.643 334.223 187.632C332.213 185.899 330.757 183.784 329.855 181.288C328.954 178.792 328.503 175.672 328.503 171.928V168.08V146.552ZM358.455 145.2V143.848C358.455 142.323 358.421 141.213 358.351 140.52C358.282 139.827 358.178 139.203 358.039 138.648C357.762 137.885 357.277 137.296 356.583 136.88C355.959 136.464 355.231 136.256 354.399 136.256C353.567 136.256 352.805 136.464 352.111 136.88C351.487 137.296 351.037 137.885 350.759 138.648C350.551 139.203 350.413 139.861 350.343 140.624C350.274 141.317 350.239 142.392 350.239 143.848V145.2V169.432V170.888C350.239 172.344 350.274 173.419 350.343 174.112C350.413 174.805 350.551 175.429 350.759 175.984C351.037 176.747 351.487 177.371 352.111 177.856C352.805 178.272 353.567 178.48 354.399 178.48C355.231 178.48 355.959 178.272 356.583 177.856C357.277 177.371 357.762 176.747 358.039 175.984C358.178 175.429 358.282 174.805 358.351 174.112C358.421 173.419 358.455 172.344 358.455 170.888V169.432V145.2ZM388.096 179.728C389.275 179.173 390.037 178.48 390.384 177.648C390.731 176.816 390.904 175.325 390.904 173.176V172.136V142.6V141.56C390.904 139.341 390.731 137.816 390.384 136.984C390.037 136.152 389.275 135.459 388.096 134.904V122.632H418.152H420.544C424.288 122.701 427.304 122.979 429.592 123.464C431.949 123.88 433.995 124.643 435.728 125.752C440.581 128.941 443.008 134.141 443.008 141.352C443.008 149.811 439.541 155.149 432.608 157.368C434.341 157.853 435.763 158.408 436.872 159.032C438.051 159.656 438.987 160.419 439.68 161.32C440.373 162.152 440.859 163.192 441.136 164.44C441.483 165.688 441.656 167.179 441.656 168.912V170.888V172.552C441.656 174.979 441.829 176.677 442.176 177.648C442.523 178.619 443.251 179.312 444.36 179.728V192H421.064C420.579 189.851 420.232 187.805 420.024 185.864C419.885 183.853 419.816 181.531 419.816 178.896V176.296V175.36V174.528C419.816 174.181 419.816 173.869 419.816 173.592C419.885 173.245 419.92 172.968 419.92 172.76C419.92 170.611 419.677 169.016 419.192 167.976C418.776 166.867 418.013 166.069 416.904 165.584C416.419 165.307 415.899 165.168 415.344 165.168C414.789 165.099 413.819 165.064 412.432 165.064V172.136V173.176C412.432 175.325 412.571 176.816 412.848 177.648C413.195 178.411 413.957 179.104 415.136 179.728V192H388.096V179.728ZM412.432 151.232H413.576H415.136C417.285 151.163 418.741 150.608 419.504 149.568C420.336 148.528 420.752 146.691 420.752 144.056C420.752 141.283 420.267 139.445 419.296 138.544C418.395 137.643 416.488 137.192 413.576 137.192H412.432V151.232ZM465.422 179.728C466.808 178.965 467.744 178.133 468.23 177.232C468.784 176.261 469.062 174.805 469.062 172.864V171.72V136.88C467.467 137.019 466.358 137.4 465.734 138.024C465.179 138.648 464.902 139.827 464.902 141.56V142.288V154.144H449.51V122.632H509.31V154.144H493.918V142.288V141.56C493.918 139.827 493.64 138.648 493.086 138.024C492.531 137.4 491.456 137.019 489.862 136.88V171.72V172.864C489.862 174.805 490.104 176.261 490.59 177.232C491.075 178.133 492.046 178.965 493.502 179.728V192H465.422V179.728ZM552.674 122.632L562.658 171.616C563.212 174.32 563.732 176.227 564.218 177.336C564.772 178.445 565.535 179.243 566.506 179.728V192H539.362V179.728C540.956 178.757 541.754 177.509 541.754 175.984C541.754 175.776 541.754 175.568 541.754 175.36C541.754 175.083 541.684 174.771 541.546 174.424L541.442 173.904H531.042C530.903 174.597 530.799 175.083 530.73 175.36C530.73 175.568 530.73 175.776 530.73 175.984C530.73 177.787 531.666 179.035 533.538 179.728V192H509.618V179.728C510.588 178.965 511.247 178.133 511.594 177.232C511.94 176.331 512.322 174.771 512.738 172.552L522.098 122.632H552.674ZM539.466 161.632L537.282 149.36C537.143 148.389 537.039 147.731 536.97 147.384C536.9 146.968 536.796 146.379 536.658 145.616C536.519 144.992 536.38 144.195 536.242 143.224C536.172 142.253 536.103 141.491 536.034 140.936L535.826 139.792H535.618C535.479 141.317 535.306 142.912 535.098 144.576C534.959 146.171 534.751 147.765 534.474 149.36L532.81 161.632H539.466ZM571.315 179.728C572.493 179.173 573.256 178.48 573.603 177.648C573.949 176.816 574.123 175.325 574.123 173.176V172.136V142.6V141.56C574.123 139.341 573.949 137.816 573.603 136.984C573.256 136.152 572.493 135.459 571.315 134.904V122.632H598.979V134.904C597.661 135.389 596.76 136.083 596.275 136.984C595.859 137.885 595.651 139.411 595.651 141.56V142.6V177.128H596.067H596.379C598.805 177.059 600.435 176.643 601.267 175.88C602.168 175.048 602.619 173.557 602.619 171.408V170.264V158.512H621.651V192H571.315V179.728Z" fill="white"/>
</svg>
