<svg width="1662" height="134" viewBox="0 0 1662 134" fill="none" xmlns="http://www.w3.org/2000/svg">
<path d="M80.704 46.904C80.2187 47.32 79.8027 47.736 79.456 48.152C79.1787 48.4987 78.936 48.9493 78.728 49.504C78.52 49.9893 78.312 50.5787 78.104 51.272C77.9653 51.9653 77.792 52.8667 77.584 53.976L68.224 104H46.488L42.952 83.72C42.952 83.3733 42.9173 83.0613 42.848 82.784L42.432 80.184C42.2933 79.2133 42.1547 78.4507 42.016 77.896C41.9467 77.272 41.8773 76.8213 41.808 76.544L41.496 73.944C41.496 73.8053 41.4613 73.632 41.392 73.424C41.392 73.216 41.3573 72.9387 41.288 72.592H41.08L40.872 74.048L40.456 76.752C40.3173 77.6533 40.144 78.8667 39.936 80.392C39.728 81.848 39.5547 82.9227 39.416 83.616L35.464 104H14.144L4.784 53.976C4.576 52.8667 4.368 51.9653 4.16 51.272C4.02133 50.5093 3.81333 49.8853 3.536 49.4C3.25867 48.9147 2.94667 48.4987 2.6 48.152C2.25333 47.736 1.83733 47.32 1.352 46.904V34.632H28.392V46.904C27.4213 47.4587 26.7973 47.944 26.52 48.36C26.2427 48.776 26.104 49.3653 26.104 50.128C26.104 50.336 26.104 50.5787 26.104 50.856C26.1733 51.064 26.208 51.3067 26.208 51.584L26.312 52.104L27.976 63.752L28.08 64.792L28.288 66.664C28.3573 67.288 28.392 67.9467 28.392 68.64C28.4613 69.3333 28.5307 70.096 28.6 70.928H28.808L28.912 69.992C29.0507 69.2293 29.1547 68.536 29.224 67.912C29.2933 67.288 29.3627 66.8373 29.432 66.56L29.744 65C29.8133 64.6533 29.848 64.376 29.848 64.168C29.848 63.96 29.8827 63.8213 29.952 63.752L35.36 34.632H50.232L55.744 62.088L56.264 64.584L56.784 67.392C56.9227 68.016 56.992 68.5707 56.992 69.056C57.0613 69.472 57.1307 70.0613 57.2 70.824H57.408C57.4773 69.576 57.5467 68.3973 57.616 67.288C57.6853 66.1787 57.7893 65.2427 57.928 64.48L58.24 62.192L59.28 53.976C59.28 53.56 59.3147 53.2827 59.384 53.144L59.488 51.896V50.44C59.488 48.8453 58.7253 47.6667 57.2 46.904V34.632H80.704V46.904ZM85.4945 91.728C86.6732 91.1733 87.4358 90.4453 87.7825 89.544C88.1292 88.5733 88.3025 86.7707 88.3025 84.136V54.6L88.1985 52.416C88.1985 50.6827 88.0252 49.4693 87.6785 48.776C87.3318 48.0827 86.6038 47.4587 85.4945 46.904V34.632H137.599V57.824H117.527V57.408V56.264C117.527 53.8373 117.076 52.104 116.175 51.064C115.343 50.024 113.887 49.504 111.807 49.504H110.871H109.831V61.36H123.559V74.984H109.831V89.128H110.247H110.663C112.049 89.128 113.193 89.024 114.095 88.816C114.996 88.608 115.689 88.2267 116.175 87.672C116.729 87.1173 117.076 86.3893 117.215 85.488C117.423 84.5173 117.527 83.2693 117.527 81.744V80.08V78.624H137.599V104H85.4945V91.728ZM144.909 91.728C146.087 91.1733 146.85 90.48 147.197 89.648C147.543 88.816 147.717 87.3253 147.717 85.176V84.136V54.6V53.56C147.717 51.3413 147.543 49.816 147.197 48.984C146.85 48.152 146.087 47.4587 144.909 46.904V34.632H172.573V46.904C171.255 47.3893 170.354 48.0827 169.869 48.984C169.453 49.8853 169.245 51.4107 169.245 53.56V54.6V89.128H169.661H169.973C172.399 89.0587 174.029 88.6427 174.861 87.88C175.762 87.048 176.213 85.5573 176.213 83.408V82.264V70.512H195.245V104H144.909V91.728ZM252.657 60.32H231.545V53.248C231.545 51.6533 231.198 50.44 230.505 49.608C229.881 48.7067 228.945 48.256 227.697 48.256C227.003 48.256 226.379 48.464 225.825 48.88C225.27 49.2267 224.854 49.6773 224.577 50.232C224.299 50.7867 224.091 51.4107 223.953 52.104C223.883 52.7973 223.849 53.9067 223.849 55.432V56.888V81.12V82.472C223.918 85.4533 224.23 87.4987 224.785 88.608C225.339 89.648 226.379 90.168 227.905 90.168C229.361 90.168 230.331 89.7173 230.817 88.816C231.302 87.9147 231.545 86.1813 231.545 83.616V74.984H252.657V98.072C250.785 99.3893 248.913 100.533 247.041 101.504C245.169 102.405 243.227 103.133 241.217 103.688C239.275 104.243 237.195 104.659 234.977 104.936C232.758 105.213 230.297 105.352 227.593 105.352C218.787 105.352 212.339 103.653 208.249 100.256C204.158 96.7893 202.113 91.3467 202.113 83.928V80.08V58.552V54.704C202.182 50.4747 202.737 47.0773 203.777 44.512C204.886 41.9467 206.689 39.7627 209.185 37.96C213.137 34.9093 219.134 33.384 227.177 33.384C232.238 33.384 236.849 34.008 241.009 35.256C245.238 36.4347 249.121 38.3413 252.657 40.976V60.32ZM261.324 58.552V54.704C261.393 50.4747 261.948 47.0773 262.988 44.512C264.097 41.9467 265.9 39.7627 268.396 37.96C270.545 36.3653 273.11 35.2213 276.092 34.528C279.073 33.7653 282.782 33.384 287.22 33.384C292.073 33.384 296.06 33.8347 299.18 34.736C302.369 35.568 305.073 36.9893 307.292 39C309.302 40.8027 310.758 42.952 311.66 45.448C312.561 47.8747 313.012 50.96 313.012 54.704V58.552V80.08V83.928C312.942 88.1573 312.353 91.5547 311.244 94.12C310.204 96.6853 308.47 98.904 306.044 100.776C303.825 102.371 301.225 103.515 298.244 104.208C295.332 104.971 291.657 105.352 287.22 105.352C282.297 105.352 278.241 104.901 275.052 104C271.932 103.099 269.262 101.643 267.044 99.632C265.033 97.8987 263.577 95.784 262.676 93.288C261.774 90.792 261.324 87.672 261.324 83.928V80.08V58.552ZM291.276 57.2V55.848C291.276 54.3227 291.241 53.2133 291.172 52.52C291.102 51.8267 290.998 51.2027 290.86 50.648C290.582 49.8853 290.097 49.296 289.404 48.88C288.78 48.464 288.052 48.256 287.22 48.256C286.388 48.256 285.625 48.464 284.932 48.88C284.308 49.296 283.857 49.8853 283.58 50.648C283.372 51.2027 283.233 51.8613 283.164 52.624C283.094 53.3173 283.06 54.392 283.06 55.848V57.2V81.432V82.888C283.06 84.344 283.094 85.4187 283.164 86.112C283.233 86.8053 283.372 87.4293 283.58 87.984C283.857 88.7467 284.308 89.3707 284.932 89.856C285.625 90.272 286.388 90.48 287.22 90.48C288.052 90.48 288.78 90.272 289.404 89.856C290.097 89.3707 290.582 88.7467 290.86 87.984C290.998 87.4293 291.102 86.8053 291.172 86.112C291.241 85.4187 291.276 84.344 291.276 82.888V81.432V57.2ZM320.916 91.728C322.095 91.1733 322.858 90.48 323.204 89.648C323.551 88.816 323.724 87.3253 323.724 85.176V84.136V54.6V53.56C323.724 51.3413 323.551 49.816 323.204 48.984C322.858 48.152 322.095 47.4587 320.916 46.904V34.632H349.724L355.652 61.88H355.86L362.204 34.632H390.284V46.904C389.106 47.4587 388.343 48.1867 387.996 49.088C387.65 49.92 387.476 51.4107 387.476 53.56V54.6V84.136V85.176C387.476 86.2853 387.511 87.1867 387.58 87.88C387.719 88.5733 387.892 89.1627 388.1 89.648C388.308 90.1333 388.586 90.5493 388.932 90.896C389.279 91.1733 389.73 91.4507 390.284 91.728V104H364.076V91.728C365.255 91.104 365.983 90.4107 366.26 89.648C366.607 88.816 366.78 87.3253 366.78 85.176V84.136V67.912H366.572C366.503 69.2987 366.295 70.928 365.948 72.8C365.602 74.6027 365.047 76.96 364.284 79.872L363.868 81.432L357.836 104H349.516L342.964 79.976C342.826 79.6293 342.722 79.144 342.652 78.52L342.132 76.336C341.786 75.0187 341.474 73.5973 341.196 72.072C340.919 70.5467 340.711 69.16 340.572 67.912H340.364V84.136V85.176C340.364 86.2853 340.399 87.1867 340.468 87.88C340.538 88.5733 340.676 89.1627 340.884 89.648C341.092 90.1333 341.37 90.5493 341.716 90.896C342.132 91.1733 342.618 91.4507 343.172 91.728V104H320.916V91.728ZM397.19 91.728C398.368 91.1733 399.131 90.4453 399.478 89.544C399.824 88.5733 399.998 86.7707 399.998 84.136V54.6L399.894 52.416C399.894 50.6827 399.72 49.4693 399.374 48.776C399.027 48.0827 398.299 47.4587 397.19 46.904V34.632H449.294V57.824H429.222V57.408V56.264C429.222 53.8373 428.771 52.104 427.87 51.064C427.038 50.024 425.582 49.504 423.502 49.504H422.566H421.526V61.36H435.254V74.984H421.526V89.128H421.942H422.358C423.744 89.128 424.888 89.024 425.79 88.816C426.691 88.608 427.384 88.2267 427.87 87.672C428.424 87.1173 428.771 86.3893 428.91 85.488C429.118 84.5173 429.222 83.2693 429.222 81.744V80.08V78.624H449.294V104H397.19V91.728ZM498.18 91.728C499.566 90.9653 500.502 90.1333 500.988 89.232C501.542 88.2613 501.82 86.8053 501.82 84.864V83.72V48.88C500.225 49.0187 499.116 49.4 498.492 50.024C497.937 50.648 497.66 51.8267 497.66 53.56V54.288V66.144H482.268V34.632H542.068V66.144H526.676V54.288V53.56C526.676 51.8267 526.398 50.648 525.844 50.024C525.289 49.4 524.214 49.0187 522.62 48.88V83.72V84.864C522.62 86.8053 522.862 88.2613 523.348 89.232C523.833 90.1333 524.804 90.9653 526.26 91.728V104H498.18V91.728ZM548.644 58.552V54.704C548.713 50.4747 549.268 47.0773 550.308 44.512C551.417 41.9467 553.22 39.7627 555.716 37.96C557.865 36.3653 560.431 35.2213 563.412 34.528C566.393 33.7653 570.103 33.384 574.54 33.384C579.393 33.384 583.38 33.8347 586.5 34.736C589.689 35.568 592.393 36.9893 594.612 39C596.623 40.8027 598.079 42.952 598.98 45.448C599.881 47.8747 600.332 50.96 600.332 54.704V58.552V80.08V83.928C600.263 88.1573 599.673 91.5547 598.564 94.12C597.524 96.6853 595.791 98.904 593.364 100.776C591.145 102.371 588.545 103.515 585.564 104.208C582.652 104.971 578.977 105.352 574.54 105.352C569.617 105.352 565.561 104.901 562.372 104C559.252 103.099 556.583 101.643 554.364 99.632C552.353 97.8987 550.897 95.784 549.996 93.288C549.095 90.792 548.644 87.672 548.644 83.928V80.08V58.552ZM578.596 57.2V55.848C578.596 54.3227 578.561 53.2133 578.492 52.52C578.423 51.8267 578.319 51.2027 578.18 50.648C577.903 49.8853 577.417 49.296 576.724 48.88C576.1 48.464 575.372 48.256 574.54 48.256C573.708 48.256 572.945 48.464 572.252 48.88C571.628 49.296 571.177 49.8853 570.9 50.648C570.692 51.2027 570.553 51.8613 570.484 52.624C570.415 53.3173 570.38 54.392 570.38 55.848V57.2V81.432V82.888C570.38 84.344 570.415 85.4187 570.484 86.112C570.553 86.8053 570.692 87.4293 570.9 87.984C571.177 88.7467 571.628 89.3707 572.252 89.856C572.945 90.272 573.708 90.48 574.54 90.48C575.372 90.48 576.1 90.272 576.724 89.856C577.417 89.3707 577.903 88.7467 578.18 87.984C578.319 87.4293 578.423 86.8053 578.492 86.112C578.561 85.4187 578.596 84.344 578.596 82.888V81.432V57.2ZM635.252 91.728C636.431 91.1733 637.194 90.4453 637.54 89.544C637.887 88.6427 638.06 87.1867 638.06 85.176V84.136V54.6V53.56C638.06 51.4107 637.852 49.92 637.436 49.088C637.09 48.1867 636.362 47.4587 635.252 46.904V34.632H661.772V46.904C660.871 47.4587 660.282 48.048 660.004 48.672C659.727 49.2267 659.588 50.1973 659.588 51.584V53.56V54.808V61.672H667.908V54.808V53.56V51.792C667.908 50.336 667.77 49.296 667.492 48.672C667.215 48.048 666.591 47.4587 665.62 46.904V34.632H692.14V46.904C691.031 47.4587 690.268 48.1867 689.852 49.088C689.506 49.9893 689.332 51.4453 689.332 53.456V54.6V84.136V85.176C689.332 87.3253 689.506 88.816 689.852 89.648C690.199 90.48 690.962 91.1733 692.14 91.728V104H665.62V91.728C666.591 91.1733 667.215 90.6187 667.492 90.064C667.77 89.5093 667.908 88.5733 667.908 87.256V85.176V83.824V74.776H659.588V83.824V85.176V87.048C659.519 88.4347 659.623 89.44 659.9 90.064C660.247 90.688 660.871 91.2427 661.772 91.728V104H635.252V91.728ZM699.034 91.728C700.212 91.1733 700.975 90.48 701.322 89.648C701.668 88.816 701.842 87.3253 701.842 85.176V84.136V54.6V53.56C701.842 51.3413 701.668 49.816 701.322 48.984C700.975 48.152 700.212 47.4587 699.034 46.904V34.632H726.074V46.904C724.895 47.4587 724.132 48.1867 723.786 49.088C723.508 49.92 723.37 51.4107 723.37 53.56V54.6V84.136V85.176C723.37 86.2853 723.404 87.1867 723.474 87.88C723.543 88.5733 723.682 89.1627 723.89 89.648C724.098 90.1333 724.375 90.5493 724.722 90.896C725.068 91.1733 725.519 91.4507 726.074 91.728V104H699.034V91.728ZM747.617 91.728C749.004 90.9653 749.94 90.1333 750.425 89.232C750.98 88.2613 751.257 86.8053 751.257 84.864V83.72V48.88C749.662 49.0187 748.553 49.4 747.929 50.024C747.374 50.648 747.097 51.8267 747.097 53.56V54.288V66.144H731.705V34.632H791.505V66.144H776.113V54.288V53.56C776.113 51.8267 775.836 50.648 775.281 50.024C774.726 49.4 773.652 49.0187 772.057 48.88V83.72V84.864C772.057 86.8053 772.3 88.2613 772.785 89.232C773.27 90.1333 774.241 90.9653 775.697 91.728V104H747.617V91.728ZM838.617 91.728C840.004 90.9653 840.94 90.1333 841.425 89.232C841.98 88.2613 842.257 86.8053 842.257 84.864V83.72V48.88C840.662 49.0187 839.553 49.4 838.929 50.024C838.374 50.648 838.097 51.8267 838.097 53.56V54.288V66.144H822.705V34.632H882.505V66.144H867.113V54.288V53.56C867.113 51.8267 866.836 50.648 866.281 50.024C865.726 49.4 864.652 49.0187 863.057 48.88V83.72V84.864C863.057 86.8053 863.3 88.2613 863.785 89.232C864.27 90.1333 865.241 90.9653 866.697 91.728V104H838.617V91.728ZM888.041 91.728C889.22 91.1733 889.983 90.4453 890.329 89.544C890.676 88.6427 890.849 87.1867 890.849 85.176V84.136V54.6V53.56C890.849 51.4107 890.641 49.92 890.225 49.088C889.879 48.1867 889.151 47.4587 888.041 46.904V34.632H914.561V46.904C913.66 47.4587 913.071 48.048 912.793 48.672C912.516 49.2267 912.377 50.1973 912.377 51.584V53.56V54.808V61.672H920.697V54.808V53.56V51.792C920.697 50.336 920.559 49.296 920.281 48.672C920.004 48.048 919.38 47.4587 918.409 46.904V34.632H944.929V46.904C943.82 47.4587 943.057 48.1867 942.641 49.088C942.295 49.9893 942.121 51.4453 942.121 53.456V54.6V84.136V85.176C942.121 87.3253 942.295 88.816 942.641 89.648C942.988 90.48 943.751 91.1733 944.929 91.728V104H918.409V91.728C919.38 91.1733 920.004 90.6187 920.281 90.064C920.559 89.5093 920.697 88.5733 920.697 87.256V85.176V83.824V74.776H912.377V83.824V85.176V87.048C912.308 88.4347 912.412 89.44 912.689 90.064C913.036 90.688 913.66 91.2427 914.561 91.728V104H888.041V91.728ZM951.823 91.728C953.001 91.1733 953.764 90.4453 954.111 89.544C954.457 88.5733 954.631 86.7707 954.631 84.136V54.6L954.527 52.416C954.527 50.6827 954.353 49.4693 954.007 48.776C953.66 48.0827 952.932 47.4587 951.823 46.904V34.632H1003.93V57.824H983.855V57.408V56.264C983.855 53.8373 983.404 52.104 982.503 51.064C981.671 50.024 980.215 49.504 978.135 49.504H977.199H976.159V61.36H989.887V74.984H976.159V89.128H976.575H976.991C978.377 89.128 979.521 89.024 980.423 88.816C981.324 88.608 982.017 88.2267 982.503 87.672C983.057 87.1173 983.404 86.3893 983.543 85.488C983.751 84.5173 983.855 83.2693 983.855 81.744V80.08V78.624H1003.93V104H951.823V91.728ZM1038.25 91.728C1038.88 91.4507 1039.36 91.1733 1039.71 90.896C1040.05 90.5493 1040.33 90.1333 1040.54 89.648C1040.75 89.1627 1040.89 88.5733 1040.96 87.88C1041.03 87.1173 1041.06 86.1813 1041.06 85.072V84.136V54.6V53.56C1041.06 51.3413 1040.89 49.816 1040.54 48.984C1040.19 48.152 1039.43 47.4587 1038.25 46.904V34.632H1088.59V58.864H1069.97V55.432C1069.97 54.2533 1069.87 53.2827 1069.66 52.52C1069.52 51.7573 1069.21 51.168 1068.72 50.752C1068.24 50.2667 1067.55 49.9547 1066.64 49.816C1065.81 49.608 1064.74 49.504 1063.42 49.504H1062.59V62.504H1076.32V76.336H1062.59V84.136V85.176V86.84C1062.66 88.4347 1062.93 89.5787 1063.42 90.272C1063.97 90.9653 1064.84 91.4507 1066.02 91.728V104H1038.25V91.728ZM1094.42 91.728C1095.6 91.1733 1096.36 90.48 1096.7 89.648C1097.05 88.816 1097.22 87.3253 1097.22 85.176V84.136V54.6V53.56C1097.22 51.3413 1097.05 49.816 1096.7 48.984C1096.36 48.152 1095.6 47.4587 1094.42 46.904V34.632H1124.47H1126.86C1130.61 34.7013 1133.62 34.9787 1135.91 35.464C1138.27 35.88 1140.32 36.6427 1142.05 37.752C1146.9 40.9413 1149.33 46.1413 1149.33 53.352C1149.33 61.8107 1145.86 67.1493 1138.93 69.368C1140.66 69.8533 1142.08 70.408 1143.19 71.032C1144.37 71.656 1145.31 72.4187 1146 73.32C1146.69 74.152 1147.18 75.192 1147.46 76.44C1147.8 77.688 1147.98 79.1787 1147.98 80.912V82.888V84.552C1147.98 86.9787 1148.15 88.6773 1148.5 89.648C1148.84 90.6187 1149.57 91.312 1150.68 91.728V104H1127.38C1126.9 101.851 1126.55 99.8053 1126.34 97.864C1126.21 95.8533 1126.14 93.5307 1126.14 90.896V88.296V87.36V86.528C1126.14 86.1813 1126.14 85.8693 1126.14 85.592C1126.21 85.2453 1126.24 84.968 1126.24 84.76C1126.24 82.6107 1126 81.016 1125.51 79.976C1125.1 78.8667 1124.33 78.0693 1123.22 77.584C1122.74 77.3067 1122.22 77.168 1121.66 77.168C1121.11 77.0987 1120.14 77.064 1118.75 77.064V84.136V85.176C1118.75 87.3253 1118.89 88.816 1119.17 89.648C1119.52 90.4107 1120.28 91.104 1121.46 91.728V104H1094.42V91.728ZM1118.75 63.232H1119.9H1121.46C1123.61 63.1627 1125.06 62.608 1125.82 61.568C1126.66 60.528 1127.07 58.6907 1127.07 56.056C1127.07 53.2827 1126.59 51.4453 1125.62 50.544C1124.72 49.6427 1122.81 49.192 1119.9 49.192H1118.75V63.232ZM1158.22 58.552V54.704C1158.29 50.4747 1158.85 47.0773 1159.89 44.512C1161 41.9467 1162.8 39.7627 1165.29 37.96C1167.44 36.3653 1170.01 35.2213 1172.99 34.528C1175.97 33.7653 1179.68 33.384 1184.12 33.384C1188.97 33.384 1192.96 33.8347 1196.08 34.736C1199.27 35.568 1201.97 36.9893 1204.19 39C1206.2 40.8027 1207.66 42.952 1208.56 45.448C1209.46 47.8747 1209.91 50.96 1209.91 54.704V58.552V80.08V83.928C1209.84 88.1573 1209.25 91.5547 1208.14 94.12C1207.1 96.6853 1205.37 98.904 1202.94 100.776C1200.72 102.371 1198.12 103.515 1195.14 104.208C1192.23 104.971 1188.56 105.352 1184.12 105.352C1179.2 105.352 1175.14 104.901 1171.95 104C1168.83 103.099 1166.16 101.643 1163.94 99.632C1161.93 97.8987 1160.48 95.784 1159.57 93.288C1158.67 90.792 1158.22 87.672 1158.22 83.928V80.08V58.552ZM1188.17 57.2V55.848C1188.17 54.3227 1188.14 53.2133 1188.07 52.52C1188 51.8267 1187.9 51.2027 1187.76 50.648C1187.48 49.8853 1187 49.296 1186.3 48.88C1185.68 48.464 1184.95 48.256 1184.12 48.256C1183.29 48.256 1182.52 48.464 1181.83 48.88C1181.21 49.296 1180.76 49.8853 1180.48 50.648C1180.27 51.2027 1180.13 51.8613 1180.06 52.624C1179.99 53.3173 1179.96 54.392 1179.96 55.848V57.2V81.432V82.888C1179.96 84.344 1179.99 85.4187 1180.06 86.112C1180.13 86.8053 1180.27 87.4293 1180.48 87.984C1180.76 88.7467 1181.21 89.3707 1181.83 89.856C1182.52 90.272 1183.29 90.48 1184.12 90.48C1184.95 90.48 1185.68 90.272 1186.3 89.856C1187 89.3707 1187.48 88.7467 1187.76 87.984C1187.9 87.4293 1188 86.8053 1188.07 86.112C1188.14 85.4187 1188.17 84.344 1188.17 82.888V81.432V57.2ZM1269.61 58.864H1248.81V54.392C1248.81 50.3013 1247.45 48.256 1244.75 48.256C1243.5 48.256 1242.5 48.7067 1241.73 49.608C1240.97 50.5093 1240.59 51.7227 1240.59 53.248V55.016V81.432V82.888C1240.66 84.344 1240.69 85.4187 1240.69 86.112C1240.76 86.8053 1240.9 87.4293 1241.11 87.984C1241.67 89.648 1242.91 90.48 1244.85 90.48C1246.38 90.48 1247.45 89.96 1248.08 88.92C1248.7 87.88 1249.01 86.1467 1249.01 83.72V78.624H1245.17V64.584H1269.61V97.864C1266.69 100.429 1263.19 102.336 1259.1 103.584C1255.08 104.763 1250.23 105.352 1244.54 105.352C1238.93 105.352 1234.32 104.693 1230.71 103.376C1227.11 102.059 1224.3 99.9787 1222.29 97.136C1221.25 95.7493 1220.45 94.2587 1219.89 92.664C1219.41 91 1219.1 88.9547 1218.96 86.528C1218.96 86.112 1218.92 85.7653 1218.85 85.488C1218.85 85.2107 1218.85 84.864 1218.85 84.448C1218.85 84.032 1218.85 83.512 1218.85 82.888C1218.85 82.1947 1218.85 81.2587 1218.85 80.08V58.552V54.704C1218.92 50.4747 1219.48 47.0773 1220.52 44.512C1221.63 41.9467 1223.43 39.7627 1225.93 37.96C1230.02 34.9093 1235.95 33.384 1243.71 33.384C1248.84 33.384 1253.59 34.0427 1257.96 35.36C1262.33 36.6773 1266.21 38.6533 1269.61 41.288V58.864ZM1304.96 91.728C1305.58 91.4507 1306.06 91.1733 1306.41 90.896C1306.83 90.5493 1307.1 90.1333 1307.24 89.648C1307.45 89.0933 1307.59 88.4 1307.66 87.568C1307.73 86.6667 1307.76 85.5227 1307.76 84.136V54.6V53.56V51.896C1307.69 50.5093 1307.45 49.4693 1307.04 48.776C1306.69 48.0827 1306 47.4587 1304.96 46.904V34.632H1333.04H1336.36C1338.51 34.632 1340.42 34.736 1342.08 34.944C1343.75 35.0827 1345.24 35.36 1346.56 35.776C1347.87 36.1227 1349.05 36.608 1350.09 37.232C1351.2 37.856 1352.24 38.6187 1353.21 39.52C1354.32 40.56 1355.26 41.6347 1356.02 42.744C1356.78 43.8533 1357.37 45.136 1357.79 46.592C1358.27 48.048 1358.58 49.7467 1358.72 51.688C1358.93 53.6293 1359.04 55.9173 1359.04 58.552C1359.04 61.6027 1358.93 64.2373 1358.72 66.456C1358.52 68.6747 1358.17 70.616 1357.68 72.28C1357.2 73.944 1356.54 75.4 1355.71 76.648C1354.94 77.8267 1353.94 78.936 1352.69 79.976C1351.51 81.016 1350.06 81.8827 1348.32 82.576C1346.59 83.2693 1344.75 83.7547 1342.81 84.032C1342.12 84.1707 1341.18 84.2747 1340 84.344C1338.82 84.344 1337.16 84.344 1335.01 84.344H1333.14H1329.29V84.864C1329.29 87.152 1329.5 88.7467 1329.92 89.648C1330.33 90.48 1331.27 91.1733 1332.72 91.728V104H1304.96V91.728ZM1329.29 69.576H1330.54H1332.2C1334.14 69.5067 1335.5 69.0213 1336.26 68.12C1337.09 67.2187 1337.51 65.7627 1337.51 63.752V62.712V56.264V55.328C1337.51 53.248 1337.09 51.7573 1336.26 50.856C1335.43 49.8853 1334.08 49.4 1332.2 49.4H1330.54H1329.29V69.576ZM1366.32 58.552V54.704C1366.39 50.4747 1366.95 47.0773 1367.99 44.512C1369.1 41.9467 1370.9 39.7627 1373.4 37.96C1375.54 36.3653 1378.11 35.2213 1381.09 34.528C1384.07 33.7653 1387.78 33.384 1392.22 33.384C1397.07 33.384 1401.06 33.8347 1404.18 34.736C1407.37 35.568 1410.07 36.9893 1412.29 39C1414.3 40.8027 1415.76 42.952 1416.66 45.448C1417.56 47.8747 1418.01 50.96 1418.01 54.704V58.552V80.08V83.928C1417.94 88.1573 1417.35 91.5547 1416.24 94.12C1415.2 96.6853 1413.47 98.904 1411.04 100.776C1408.82 102.371 1406.22 103.515 1403.24 104.208C1400.33 104.971 1396.66 105.352 1392.22 105.352C1387.3 105.352 1383.24 104.901 1380.05 104C1376.93 103.099 1374.26 101.643 1372.04 99.632C1370.03 97.8987 1368.58 95.784 1367.68 93.288C1366.77 90.792 1366.32 87.672 1366.32 83.928V80.08V58.552ZM1396.28 57.2V55.848C1396.28 54.3227 1396.24 53.2133 1396.17 52.52C1396.1 51.8267 1396 51.2027 1395.86 50.648C1395.58 49.8853 1395.1 49.296 1394.4 48.88C1393.78 48.464 1393.05 48.256 1392.22 48.256C1391.39 48.256 1390.62 48.464 1389.93 48.88C1389.31 49.296 1388.86 49.8853 1388.58 50.648C1388.37 51.2027 1388.23 51.8613 1388.16 52.624C1388.09 53.3173 1388.06 54.392 1388.06 55.848V57.2V81.432V82.888C1388.06 84.344 1388.09 85.4187 1388.16 86.112C1388.23 86.8053 1388.37 87.4293 1388.58 87.984C1388.86 88.7467 1389.31 89.3707 1389.93 89.856C1390.62 90.272 1391.39 90.48 1392.22 90.48C1393.05 90.48 1393.78 90.272 1394.4 89.856C1395.1 89.3707 1395.58 88.7467 1395.86 87.984C1396 87.4293 1396.1 86.8053 1396.17 86.112C1396.24 85.4187 1396.28 84.344 1396.28 82.888V81.432V57.2ZM1425.92 91.728C1427.1 91.1733 1427.86 90.48 1428.2 89.648C1428.55 88.816 1428.72 87.3253 1428.72 85.176V84.136V54.6V53.56C1428.72 51.3413 1428.55 49.816 1428.2 48.984C1427.86 48.152 1427.1 47.4587 1425.92 46.904V34.632H1455.97H1458.36C1462.11 34.7013 1465.12 34.9787 1467.41 35.464C1469.77 35.88 1471.82 36.6427 1473.55 37.752C1478.4 40.9413 1480.83 46.1413 1480.83 53.352C1480.83 61.8107 1477.36 67.1493 1470.43 69.368C1472.16 69.8533 1473.58 70.408 1474.69 71.032C1475.87 71.656 1476.81 72.4187 1477.5 73.32C1478.19 74.152 1478.68 75.192 1478.96 76.44C1479.3 77.688 1479.48 79.1787 1479.48 80.912V82.888V84.552C1479.48 86.9787 1479.65 88.6773 1480 89.648C1480.34 90.6187 1481.07 91.312 1482.18 91.728V104H1458.88C1458.4 101.851 1458.05 99.8053 1457.84 97.864C1457.71 95.8533 1457.64 93.5307 1457.64 90.896V88.296V87.36V86.528C1457.64 86.1813 1457.64 85.8693 1457.64 85.592C1457.71 85.2453 1457.74 84.968 1457.74 84.76C1457.74 82.6107 1457.5 81.016 1457.01 79.976C1456.6 78.8667 1455.83 78.0693 1454.72 77.584C1454.24 77.3067 1453.72 77.168 1453.16 77.168C1452.61 77.0987 1451.64 77.064 1450.25 77.064V84.136V85.176C1450.25 87.3253 1450.39 88.816 1450.67 89.648C1451.02 90.4107 1451.78 91.104 1452.96 91.728V104H1425.92V91.728ZM1450.25 63.232H1451.4H1452.96C1455.11 63.1627 1456.56 62.608 1457.32 61.568C1458.16 60.528 1458.57 58.6907 1458.57 56.056C1458.57 53.2827 1458.09 51.4453 1457.12 50.544C1456.22 49.6427 1454.31 49.192 1451.4 49.192H1450.25V63.232ZM1503.24 91.728C1504.63 90.9653 1505.56 90.1333 1506.05 89.232C1506.6 88.2613 1506.88 86.8053 1506.88 84.864V83.72V48.88C1505.29 49.0187 1504.18 49.4 1503.55 50.024C1503 50.648 1502.72 51.8267 1502.72 53.56V54.288V66.144H1487.33V34.632H1547.13V66.144H1531.74V54.288V53.56C1531.74 51.8267 1531.46 50.648 1530.91 50.024C1530.35 49.4 1529.28 49.0187 1527.68 48.88V83.72V84.864C1527.68 86.8053 1527.92 88.2613 1528.41 89.232C1528.9 90.1333 1529.87 90.9653 1531.32 91.728V104H1503.24V91.728ZM1590.49 34.632L1600.48 83.616C1601.03 86.32 1601.55 88.2267 1602.04 89.336C1602.59 90.4453 1603.36 91.2427 1604.33 91.728V104H1577.18V91.728C1578.78 90.7573 1579.57 89.5093 1579.57 87.984C1579.57 87.776 1579.57 87.568 1579.57 87.36C1579.57 87.0827 1579.5 86.7707 1579.37 86.424L1579.26 85.904H1568.86C1568.72 86.5973 1568.62 87.0827 1568.55 87.36C1568.55 87.568 1568.55 87.776 1568.55 87.984C1568.55 89.7867 1569.49 91.0347 1571.36 91.728V104H1547.44V91.728C1548.41 90.9653 1549.07 90.1333 1549.41 89.232C1549.76 88.3307 1550.14 86.7707 1550.56 84.552L1559.92 34.632H1590.49ZM1577.29 73.632L1575.1 61.36C1574.96 60.3893 1574.86 59.7307 1574.79 59.384C1574.72 58.968 1574.62 58.3787 1574.48 57.616C1574.34 56.992 1574.2 56.1947 1574.06 55.224C1573.99 54.2533 1573.92 53.4907 1573.85 52.936L1573.65 51.792H1573.44C1573.3 53.3173 1573.13 54.912 1572.92 56.576C1572.78 58.1707 1572.57 59.7653 1572.29 61.36L1570.63 73.632H1577.29ZM1609.14 91.728C1610.31 91.1733 1611.08 90.48 1611.42 89.648C1611.77 88.816 1611.94 87.3253 1611.94 85.176V84.136V54.6V53.56C1611.94 51.3413 1611.77 49.816 1611.42 48.984C1611.08 48.152 1610.31 47.4587 1609.14 46.904V34.632H1636.8V46.904C1635.48 47.3893 1634.58 48.0827 1634.1 48.984C1633.68 49.8853 1633.47 51.4107 1633.47 53.56V54.6V89.128H1633.89H1634.2C1636.63 89.0587 1638.26 88.6427 1639.09 87.88C1639.99 87.048 1640.44 85.5573 1640.44 83.408V82.264V70.512H1659.47V104H1609.14V91.728Z" fill="#D42D1F"/>
<path d="M80.704 34.904C80.2187 35.32 79.8027 35.736 79.456 36.152C79.1787 36.4987 78.936 36.9493 78.728 37.504C78.52 37.9893 78.312 38.5787 78.104 39.272C77.9653 39.9653 77.792 40.8667 77.584 41.976L68.224 92H46.488L42.952 71.72C42.952 71.3733 42.9173 71.0613 42.848 70.784L42.432 68.184C42.2933 67.2133 42.1547 66.4507 42.016 65.896C41.9467 65.272 41.8773 64.8213 41.808 64.544L41.496 61.944C41.496 61.8053 41.4613 61.632 41.392 61.424C41.392 61.216 41.3573 60.9387 41.288 60.592H41.08L40.872 62.048L40.456 64.752C40.3173 65.6533 40.144 66.8667 39.936 68.392C39.728 69.848 39.5547 70.9227 39.416 71.616L35.464 92H14.144L4.784 41.976C4.576 40.8667 4.368 39.9653 4.16 39.272C4.02133 38.5093 3.81333 37.8853 3.536 37.4C3.25867 36.9147 2.94667 36.4987 2.6 36.152C2.25333 35.736 1.83733 35.32 1.352 34.904V22.632H28.392V34.904C27.4213 35.4587 26.7973 35.944 26.52 36.36C26.2427 36.776 26.104 37.3653 26.104 38.128C26.104 38.336 26.104 38.5787 26.104 38.856C26.1733 39.064 26.208 39.3067 26.208 39.584L26.312 40.104L27.976 51.752L28.08 52.792L28.288 54.664C28.3573 55.288 28.392 55.9467 28.392 56.64C28.4613 57.3333 28.5307 58.096 28.6 58.928H28.808L28.912 57.992C29.0507 57.2293 29.1547 56.536 29.224 55.912C29.2933 55.288 29.3627 54.8373 29.432 54.56L29.744 53C29.8133 52.6533 29.848 52.376 29.848 52.168C29.848 51.96 29.8827 51.8213 29.952 51.752L35.36 22.632H50.232L55.744 50.088L56.264 52.584L56.784 55.392C56.9227 56.016 56.992 56.5707 56.992 57.056C57.0613 57.472 57.1307 58.0613 57.2 58.824H57.408C57.4773 57.576 57.5467 56.3973 57.616 55.288C57.6853 54.1787 57.7893 53.2427 57.928 52.48L58.24 50.192L59.28 41.976C59.28 41.56 59.3147 41.2827 59.384 41.144L59.488 39.896V38.44C59.488 36.8453 58.7253 35.6667 57.2 34.904V22.632H80.704V34.904ZM85.4945 79.728C86.6732 79.1733 87.4358 78.4453 87.7825 77.544C88.1292 76.5733 88.3025 74.7707 88.3025 72.136V42.6L88.1985 40.416C88.1985 38.6827 88.0252 37.4693 87.6785 36.776C87.3318 36.0827 86.6038 35.4587 85.4945 34.904V22.632H137.599V45.824H117.527V45.408V44.264C117.527 41.8373 117.076 40.104 116.175 39.064C115.343 38.024 113.887 37.504 111.807 37.504H110.871H109.831V49.36H123.559V62.984H109.831V77.128H110.247H110.663C112.049 77.128 113.193 77.024 114.095 76.816C114.996 76.608 115.689 76.2267 116.175 75.672C116.729 75.1173 117.076 74.3893 117.215 73.488C117.423 72.5173 117.527 71.2693 117.527 69.744V68.08V66.624H137.599V92H85.4945V79.728ZM144.909 79.728C146.087 79.1733 146.85 78.48 147.197 77.648C147.543 76.816 147.717 75.3253 147.717 73.176V72.136V42.6V41.56C147.717 39.3413 147.543 37.816 147.197 36.984C146.85 36.152 146.087 35.4587 144.909 34.904V22.632H172.573V34.904C171.255 35.3893 170.354 36.0827 169.869 36.984C169.453 37.8853 169.245 39.4107 169.245 41.56V42.6V77.128H169.661H169.973C172.399 77.0587 174.029 76.6427 174.861 75.88C175.762 75.048 176.213 73.5573 176.213 71.408V70.264V58.512H195.245V92H144.909V79.728ZM252.657 48.32H231.545V41.248C231.545 39.6533 231.198 38.44 230.505 37.608C229.881 36.7067 228.945 36.256 227.697 36.256C227.003 36.256 226.379 36.464 225.825 36.88C225.27 37.2267 224.854 37.6773 224.577 38.232C224.299 38.7867 224.091 39.4107 223.953 40.104C223.883 40.7973 223.849 41.9067 223.849 43.432V44.888V69.12V70.472C223.918 73.4533 224.23 75.4987 224.785 76.608C225.339 77.648 226.379 78.168 227.905 78.168C229.361 78.168 230.331 77.7173 230.817 76.816C231.302 75.9147 231.545 74.1813 231.545 71.616V62.984H252.657V86.072C250.785 87.3893 248.913 88.5333 247.041 89.504C245.169 90.4053 243.227 91.1333 241.217 91.688C239.275 92.2427 237.195 92.6587 234.977 92.936C232.758 93.2133 230.297 93.352 227.593 93.352C218.787 93.352 212.339 91.6533 208.249 88.256C204.158 84.7893 202.113 79.3467 202.113 71.928V68.08V46.552V42.704C202.182 38.4747 202.737 35.0773 203.777 32.512C204.886 29.9467 206.689 27.7627 209.185 25.96C213.137 22.9093 219.134 21.384 227.177 21.384C232.238 21.384 236.849 22.008 241.009 23.256C245.238 24.4347 249.121 26.3413 252.657 28.976V48.32ZM261.324 46.552V42.704C261.393 38.4747 261.948 35.0773 262.988 32.512C264.097 29.9467 265.9 27.7627 268.396 25.96C270.545 24.3653 273.11 23.2213 276.092 22.528C279.073 21.7653 282.782 21.384 287.22 21.384C292.073 21.384 296.06 21.8347 299.18 22.736C302.369 23.568 305.073 24.9893 307.292 27C309.302 28.8027 310.758 30.952 311.66 33.448C312.561 35.8747 313.012 38.96 313.012 42.704V46.552V68.08V71.928C312.942 76.1573 312.353 79.5547 311.244 82.12C310.204 84.6853 308.47 86.904 306.044 88.776C303.825 90.3707 301.225 91.5147 298.244 92.208C295.332 92.9707 291.657 93.352 287.22 93.352C282.297 93.352 278.241 92.9013 275.052 92C271.932 91.0987 269.262 89.6427 267.044 87.632C265.033 85.8987 263.577 83.784 262.676 81.288C261.774 78.792 261.324 75.672 261.324 71.928V68.08V46.552ZM291.276 45.2V43.848C291.276 42.3227 291.241 41.2133 291.172 40.52C291.102 39.8267 290.998 39.2027 290.86 38.648C290.582 37.8853 290.097 37.296 289.404 36.88C288.78 36.464 288.052 36.256 287.22 36.256C286.388 36.256 285.625 36.464 284.932 36.88C284.308 37.296 283.857 37.8853 283.58 38.648C283.372 39.2027 283.233 39.8613 283.164 40.624C283.094 41.3173 283.06 42.392 283.06 43.848V45.2V69.432V70.888C283.06 72.344 283.094 73.4187 283.164 74.112C283.233 74.8053 283.372 75.4293 283.58 75.984C283.857 76.7467 284.308 77.3707 284.932 77.856C285.625 78.272 286.388 78.48 287.22 78.48C288.052 78.48 288.78 78.272 289.404 77.856C290.097 77.3707 290.582 76.7467 290.86 75.984C290.998 75.4293 291.102 74.8053 291.172 74.112C291.241 73.4187 291.276 72.344 291.276 70.888V69.432V45.2ZM320.916 79.728C322.095 79.1733 322.858 78.48 323.204 77.648C323.551 76.816 323.724 75.3253 323.724 73.176V72.136V42.6V41.56C323.724 39.3413 323.551 37.816 323.204 36.984C322.858 36.152 322.095 35.4587 320.916 34.904V22.632H349.724L355.652 49.88H355.86L362.204 22.632H390.284V34.904C389.106 35.4587 388.343 36.1867 387.996 37.088C387.65 37.92 387.476 39.4107 387.476 41.56V42.6V72.136V73.176C387.476 74.2853 387.511 75.1867 387.58 75.88C387.719 76.5733 387.892 77.1627 388.1 77.648C388.308 78.1333 388.586 78.5493 388.932 78.896C389.279 79.1733 389.73 79.4507 390.284 79.728V92H364.076V79.728C365.255 79.104 365.983 78.4107 366.26 77.648C366.607 76.816 366.78 75.3253 366.78 73.176V72.136V55.912H366.572C366.503 57.2987 366.295 58.928 365.948 60.8C365.602 62.6027 365.047 64.96 364.284 67.872L363.868 69.432L357.836 92H349.516L342.964 67.976C342.826 67.6293 342.722 67.144 342.652 66.52L342.132 64.336C341.786 63.0187 341.474 61.5973 341.196 60.072C340.919 58.5467 340.711 57.16 340.572 55.912H340.364V72.136V73.176C340.364 74.2853 340.399 75.1867 340.468 75.88C340.538 76.5733 340.676 77.1627 340.884 77.648C341.092 78.1333 341.37 78.5493 341.716 78.896C342.132 79.1733 342.618 79.4507 343.172 79.728V92H320.916V79.728ZM397.19 79.728C398.368 79.1733 399.131 78.4453 399.478 77.544C399.824 76.5733 399.998 74.7707 399.998 72.136V42.6L399.894 40.416C399.894 38.6827 399.72 37.4693 399.374 36.776C399.027 36.0827 398.299 35.4587 397.19 34.904V22.632H449.294V45.824H429.222V45.408V44.264C429.222 41.8373 428.771 40.104 427.87 39.064C427.038 38.024 425.582 37.504 423.502 37.504H422.566H421.526V49.36H435.254V62.984H421.526V77.128H421.942H422.358C423.744 77.128 424.888 77.024 425.79 76.816C426.691 76.608 427.384 76.2267 427.87 75.672C428.424 75.1173 428.771 74.3893 428.91 73.488C429.118 72.5173 429.222 71.2693 429.222 69.744V68.08V66.624H449.294V92H397.19V79.728ZM498.18 79.728C499.566 78.9653 500.502 78.1333 500.988 77.232C501.542 76.2613 501.82 74.8053 501.82 72.864V71.72V36.88C500.225 37.0187 499.116 37.4 498.492 38.024C497.937 38.648 497.66 39.8267 497.66 41.56V42.288V54.144H482.268V22.632H542.068V54.144H526.676V42.288V41.56C526.676 39.8267 526.398 38.648 525.844 38.024C525.289 37.4 524.214 37.0187 522.62 36.88V71.72V72.864C522.62 74.8053 522.862 76.2613 523.348 77.232C523.833 78.1333 524.804 78.9653 526.26 79.728V92H498.18V79.728ZM548.644 46.552V42.704C548.713 38.4747 549.268 35.0773 550.308 32.512C551.417 29.9467 553.22 27.7627 555.716 25.96C557.865 24.3653 560.431 23.2213 563.412 22.528C566.393 21.7653 570.103 21.384 574.54 21.384C579.393 21.384 583.38 21.8347 586.5 22.736C589.689 23.568 592.393 24.9893 594.612 27C596.623 28.8027 598.079 30.952 598.98 33.448C599.881 35.8747 600.332 38.96 600.332 42.704V46.552V68.08V71.928C600.263 76.1573 599.673 79.5547 598.564 82.12C597.524 84.6853 595.791 86.904 593.364 88.776C591.145 90.3707 588.545 91.5147 585.564 92.208C582.652 92.9707 578.977 93.352 574.54 93.352C569.617 93.352 565.561 92.9013 562.372 92C559.252 91.0987 556.583 89.6427 554.364 87.632C552.353 85.8987 550.897 83.784 549.996 81.288C549.095 78.792 548.644 75.672 548.644 71.928V68.08V46.552ZM578.596 45.2V43.848C578.596 42.3227 578.561 41.2133 578.492 40.52C578.423 39.8267 578.319 39.2027 578.18 38.648C577.903 37.8853 577.417 37.296 576.724 36.88C576.1 36.464 575.372 36.256 574.54 36.256C573.708 36.256 572.945 36.464 572.252 36.88C571.628 37.296 571.177 37.8853 570.9 38.648C570.692 39.2027 570.553 39.8613 570.484 40.624C570.415 41.3173 570.38 42.392 570.38 43.848V45.2V69.432V70.888C570.38 72.344 570.415 73.4187 570.484 74.112C570.553 74.8053 570.692 75.4293 570.9 75.984C571.177 76.7467 571.628 77.3707 572.252 77.856C572.945 78.272 573.708 78.48 574.54 78.48C575.372 78.48 576.1 78.272 576.724 77.856C577.417 77.3707 577.903 76.7467 578.18 75.984C578.319 75.4293 578.423 74.8053 578.492 74.112C578.561 73.4187 578.596 72.344 578.596 70.888V69.432V45.2ZM635.252 79.728C636.431 79.1733 637.194 78.4453 637.54 77.544C637.887 76.6427 638.06 75.1867 638.06 73.176V72.136V42.6V41.56C638.06 39.4107 637.852 37.92 637.436 37.088C637.09 36.1867 636.362 35.4587 635.252 34.904V22.632H661.772V34.904C660.871 35.4587 660.282 36.048 660.004 36.672C659.727 37.2267 659.588 38.1973 659.588 39.584V41.56V42.808V49.672H667.908V42.808V41.56V39.792C667.908 38.336 667.77 37.296 667.492 36.672C667.215 36.048 666.591 35.4587 665.62 34.904V22.632H692.14V34.904C691.031 35.4587 690.268 36.1867 689.852 37.088C689.506 37.9893 689.332 39.4453 689.332 41.456V42.6V72.136V73.176C689.332 75.3253 689.506 76.816 689.852 77.648C690.199 78.48 690.962 79.1733 692.14 79.728V92H665.62V79.728C666.591 79.1733 667.215 78.6187 667.492 78.064C667.77 77.5093 667.908 76.5733 667.908 75.256V73.176V71.824V62.776H659.588V71.824V73.176V75.048C659.519 76.4347 659.623 77.44 659.9 78.064C660.247 78.688 660.871 79.2427 661.772 79.728V92H635.252V79.728ZM699.034 79.728C700.212 79.1733 700.975 78.48 701.322 77.648C701.668 76.816 701.842 75.3253 701.842 73.176V72.136V42.6V41.56C701.842 39.3413 701.668 37.816 701.322 36.984C700.975 36.152 700.212 35.4587 699.034 34.904V22.632H726.074V34.904C724.895 35.4587 724.132 36.1867 723.786 37.088C723.508 37.92 723.37 39.4107 723.37 41.56V42.6V72.136V73.176C723.37 74.2853 723.404 75.1867 723.474 75.88C723.543 76.5733 723.682 77.1627 723.89 77.648C724.098 78.1333 724.375 78.5493 724.722 78.896C725.068 79.1733 725.519 79.4507 726.074 79.728V92H699.034V79.728ZM747.617 79.728C749.004 78.9653 749.94 78.1333 750.425 77.232C750.98 76.2613 751.257 74.8053 751.257 72.864V71.72V36.88C749.662 37.0187 748.553 37.4 747.929 38.024C747.374 38.648 747.097 39.8267 747.097 41.56V42.288V54.144H731.705V22.632H791.505V54.144H776.113V42.288V41.56C776.113 39.8267 775.836 38.648 775.281 38.024C774.726 37.4 773.652 37.0187 772.057 36.88V71.72V72.864C772.057 74.8053 772.3 76.2613 772.785 77.232C773.27 78.1333 774.241 78.9653 775.697 79.728V92H747.617V79.728ZM838.617 79.728C840.004 78.9653 840.94 78.1333 841.425 77.232C841.98 76.2613 842.257 74.8053 842.257 72.864V71.72V36.88C840.662 37.0187 839.553 37.4 838.929 38.024C838.374 38.648 838.097 39.8267 838.097 41.56V42.288V54.144H822.705V22.632H882.505V54.144H867.113V42.288V41.56C867.113 39.8267 866.836 38.648 866.281 38.024C865.726 37.4 864.652 37.0187 863.057 36.88V71.72V72.864C863.057 74.8053 863.3 76.2613 863.785 77.232C864.27 78.1333 865.241 78.9653 866.697 79.728V92H838.617V79.728ZM888.041 79.728C889.22 79.1733 889.983 78.4453 890.329 77.544C890.676 76.6427 890.849 75.1867 890.849 73.176V72.136V42.6V41.56C890.849 39.4107 890.641 37.92 890.225 37.088C889.879 36.1867 889.151 35.4587 888.041 34.904V22.632H914.561V34.904C913.66 35.4587 913.071 36.048 912.793 36.672C912.516 37.2267 912.377 38.1973 912.377 39.584V41.56V42.808V49.672H920.697V42.808V41.56V39.792C920.697 38.336 920.559 37.296 920.281 36.672C920.004 36.048 919.38 35.4587 918.409 34.904V22.632H944.929V34.904C943.82 35.4587 943.057 36.1867 942.641 37.088C942.295 37.9893 942.121 39.4453 942.121 41.456V42.6V72.136V73.176C942.121 75.3253 942.295 76.816 942.641 77.648C942.988 78.48 943.751 79.1733 944.929 79.728V92H918.409V79.728C919.38 79.1733 920.004 78.6187 920.281 78.064C920.559 77.5093 920.697 76.5733 920.697 75.256V73.176V71.824V62.776H912.377V71.824V73.176V75.048C912.308 76.4347 912.412 77.44 912.689 78.064C913.036 78.688 913.66 79.2427 914.561 79.728V92H888.041V79.728ZM951.823 79.728C953.001 79.1733 953.764 78.4453 954.111 77.544C954.457 76.5733 954.631 74.7707 954.631 72.136V42.6L954.527 40.416C954.527 38.6827 954.353 37.4693 954.007 36.776C953.66 36.0827 952.932 35.4587 951.823 34.904V22.632H1003.93V45.824H983.855V45.408V44.264C983.855 41.8373 983.404 40.104 982.503 39.064C981.671 38.024 980.215 37.504 978.135 37.504H977.199H976.159V49.36H989.887V62.984H976.159V77.128H976.575H976.991C978.377 77.128 979.521 77.024 980.423 76.816C981.324 76.608 982.017 76.2267 982.503 75.672C983.057 75.1173 983.404 74.3893 983.543 73.488C983.751 72.5173 983.855 71.2693 983.855 69.744V68.08V66.624H1003.93V92H951.823V79.728ZM1038.25 79.728C1038.88 79.4507 1039.36 79.1733 1039.71 78.896C1040.05 78.5493 1040.33 78.1333 1040.54 77.648C1040.75 77.1627 1040.89 76.5733 1040.96 75.88C1041.03 75.1173 1041.06 74.1813 1041.06 73.072V72.136V42.6V41.56C1041.06 39.3413 1040.89 37.816 1040.54 36.984C1040.19 36.152 1039.43 35.4587 1038.25 34.904V22.632H1088.59V46.864H1069.97V43.432C1069.97 42.2533 1069.87 41.2827 1069.66 40.52C1069.52 39.7573 1069.21 39.168 1068.72 38.752C1068.24 38.2667 1067.55 37.9547 1066.64 37.816C1065.81 37.608 1064.74 37.504 1063.42 37.504H1062.59V50.504H1076.32V64.336H1062.59V72.136V73.176V74.84C1062.66 76.4347 1062.93 77.5787 1063.42 78.272C1063.97 78.9653 1064.84 79.4507 1066.02 79.728V92H1038.25V79.728ZM1094.42 79.728C1095.6 79.1733 1096.36 78.48 1096.7 77.648C1097.05 76.816 1097.22 75.3253 1097.22 73.176V72.136V42.6V41.56C1097.22 39.3413 1097.05 37.816 1096.7 36.984C1096.36 36.152 1095.6 35.4587 1094.42 34.904V22.632H1124.47H1126.86C1130.61 22.7013 1133.62 22.9787 1135.91 23.464C1138.27 23.88 1140.32 24.6427 1142.05 25.752C1146.9 28.9413 1149.33 34.1413 1149.33 41.352C1149.33 49.8107 1145.86 55.1493 1138.93 57.368C1140.66 57.8533 1142.08 58.408 1143.19 59.032C1144.37 59.656 1145.31 60.4187 1146 61.32C1146.69 62.152 1147.18 63.192 1147.46 64.44C1147.8 65.688 1147.98 67.1787 1147.98 68.912V70.888V72.552C1147.98 74.9787 1148.15 76.6773 1148.5 77.648C1148.84 78.6187 1149.57 79.312 1150.68 79.728V92H1127.38C1126.9 89.8507 1126.55 87.8053 1126.34 85.864C1126.21 83.8533 1126.14 81.5307 1126.14 78.896V76.296V75.36V74.528C1126.14 74.1813 1126.14 73.8693 1126.14 73.592C1126.21 73.2453 1126.24 72.968 1126.24 72.76C1126.24 70.6107 1126 69.016 1125.51 67.976C1125.1 66.8667 1124.33 66.0693 1123.22 65.584C1122.74 65.3067 1122.22 65.168 1121.66 65.168C1121.11 65.0987 1120.14 65.064 1118.75 65.064V72.136V73.176C1118.75 75.3253 1118.89 76.816 1119.17 77.648C1119.52 78.4107 1120.28 79.104 1121.46 79.728V92H1094.42V79.728ZM1118.75 51.232H1119.9H1121.46C1123.61 51.1627 1125.06 50.608 1125.82 49.568C1126.66 48.528 1127.07 46.6907 1127.07 44.056C1127.07 41.2827 1126.59 39.4453 1125.62 38.544C1124.72 37.6427 1122.81 37.192 1119.9 37.192H1118.75V51.232ZM1158.22 46.552V42.704C1158.29 38.4747 1158.85 35.0773 1159.89 32.512C1161 29.9467 1162.8 27.7627 1165.29 25.96C1167.44 24.3653 1170.01 23.2213 1172.99 22.528C1175.97 21.7653 1179.68 21.384 1184.12 21.384C1188.97 21.384 1192.96 21.8347 1196.08 22.736C1199.27 23.568 1201.97 24.9893 1204.19 27C1206.2 28.8027 1207.66 30.952 1208.56 33.448C1209.46 35.8747 1209.91 38.96 1209.91 42.704V46.552V68.08V71.928C1209.84 76.1573 1209.25 79.5547 1208.14 82.12C1207.1 84.6853 1205.37 86.904 1202.94 88.776C1200.72 90.3707 1198.12 91.5147 1195.14 92.208C1192.23 92.9707 1188.56 93.352 1184.12 93.352C1179.2 93.352 1175.14 92.9013 1171.95 92C1168.83 91.0987 1166.16 89.6427 1163.94 87.632C1161.93 85.8987 1160.48 83.784 1159.57 81.288C1158.67 78.792 1158.22 75.672 1158.22 71.928V68.08V46.552ZM1188.17 45.2V43.848C1188.17 42.3227 1188.14 41.2133 1188.07 40.52C1188 39.8267 1187.9 39.2027 1187.76 38.648C1187.48 37.8853 1187 37.296 1186.3 36.88C1185.68 36.464 1184.95 36.256 1184.12 36.256C1183.29 36.256 1182.52 36.464 1181.83 36.88C1181.21 37.296 1180.76 37.8853 1180.48 38.648C1180.27 39.2027 1180.13 39.8613 1180.06 40.624C1179.99 41.3173 1179.96 42.392 1179.96 43.848V45.2V69.432V70.888C1179.96 72.344 1179.99 73.4187 1180.06 74.112C1180.13 74.8053 1180.27 75.4293 1180.48 75.984C1180.76 76.7467 1181.21 77.3707 1181.83 77.856C1182.52 78.272 1183.29 78.48 1184.12 78.48C1184.95 78.48 1185.68 78.272 1186.3 77.856C1187 77.3707 1187.48 76.7467 1187.76 75.984C1187.9 75.4293 1188 74.8053 1188.07 74.112C1188.14 73.4187 1188.17 72.344 1188.17 70.888V69.432V45.2ZM1269.61 46.864H1248.81V42.392C1248.81 38.3013 1247.45 36.256 1244.75 36.256C1243.5 36.256 1242.5 36.7067 1241.73 37.608C1240.97 38.5093 1240.59 39.7227 1240.59 41.248V43.016V69.432V70.888C1240.66 72.344 1240.69 73.4187 1240.69 74.112C1240.76 74.8053 1240.9 75.4293 1241.11 75.984C1241.67 77.648 1242.91 78.48 1244.85 78.48C1246.38 78.48 1247.45 77.96 1248.08 76.92C1248.7 75.88 1249.01 74.1467 1249.01 71.72V66.624H1245.17V52.584H1269.61V85.864C1266.69 88.4293 1263.19 90.336 1259.1 91.584C1255.08 92.7627 1250.23 93.352 1244.54 93.352C1238.93 93.352 1234.32 92.6933 1230.71 91.376C1227.11 90.0587 1224.3 87.9787 1222.29 85.136C1221.25 83.7493 1220.45 82.2587 1219.89 80.664C1219.41 79 1219.1 76.9547 1218.96 74.528C1218.96 74.112 1218.92 73.7653 1218.85 73.488C1218.85 73.2107 1218.85 72.864 1218.85 72.448C1218.85 72.032 1218.85 71.512 1218.85 70.888C1218.85 70.1947 1218.85 69.2587 1218.85 68.08V46.552V42.704C1218.92 38.4747 1219.48 35.0773 1220.52 32.512C1221.63 29.9467 1223.43 27.7627 1225.93 25.96C1230.02 22.9093 1235.95 21.384 1243.71 21.384C1248.84 21.384 1253.59 22.0427 1257.96 23.36C1262.33 24.6773 1266.21 26.6533 1269.61 29.288V46.864ZM1304.96 79.728C1305.58 79.4507 1306.06 79.1733 1306.41 78.896C1306.83 78.5493 1307.1 78.1333 1307.24 77.648C1307.45 77.0933 1307.59 76.4 1307.66 75.568C1307.73 74.6667 1307.76 73.5227 1307.76 72.136V42.6V41.56V39.896C1307.69 38.5093 1307.45 37.4693 1307.04 36.776C1306.69 36.0827 1306 35.4587 1304.96 34.904V22.632H1333.04H1336.36C1338.51 22.632 1340.42 22.736 1342.08 22.944C1343.75 23.0827 1345.24 23.36 1346.56 23.776C1347.87 24.1227 1349.05 24.608 1350.09 25.232C1351.2 25.856 1352.24 26.6187 1353.21 27.52C1354.32 28.56 1355.26 29.6347 1356.02 30.744C1356.78 31.8533 1357.37 33.136 1357.79 34.592C1358.27 36.048 1358.58 37.7467 1358.72 39.688C1358.93 41.6293 1359.04 43.9173 1359.04 46.552C1359.04 49.6027 1358.93 52.2373 1358.72 54.456C1358.52 56.6747 1358.17 58.616 1357.68 60.28C1357.2 61.944 1356.54 63.4 1355.71 64.648C1354.94 65.8267 1353.94 66.936 1352.69 67.976C1351.51 69.016 1350.06 69.8827 1348.32 70.576C1346.59 71.2693 1344.75 71.7547 1342.81 72.032C1342.12 72.1707 1341.18 72.2747 1340 72.344C1338.82 72.344 1337.16 72.344 1335.01 72.344H1333.14H1329.29V72.864C1329.29 75.152 1329.5 76.7467 1329.92 77.648C1330.33 78.48 1331.27 79.1733 1332.72 79.728V92H1304.96V79.728ZM1329.29 57.576H1330.54H1332.2C1334.14 57.5067 1335.5 57.0213 1336.26 56.12C1337.09 55.2187 1337.51 53.7627 1337.51 51.752V50.712V44.264V43.328C1337.51 41.248 1337.09 39.7573 1336.26 38.856C1335.43 37.8853 1334.08 37.4 1332.2 37.4H1330.54H1329.29V57.576ZM1366.32 46.552V42.704C1366.39 38.4747 1366.95 35.0773 1367.99 32.512C1369.1 29.9467 1370.9 27.7627 1373.4 25.96C1375.54 24.3653 1378.11 23.2213 1381.09 22.528C1384.07 21.7653 1387.78 21.384 1392.22 21.384C1397.07 21.384 1401.06 21.8347 1404.18 22.736C1407.37 23.568 1410.07 24.9893 1412.29 27C1414.3 28.8027 1415.76 30.952 1416.66 33.448C1417.56 35.8747 1418.01 38.96 1418.01 42.704V46.552V68.08V71.928C1417.94 76.1573 1417.35 79.5547 1416.24 82.12C1415.2 84.6853 1413.47 86.904 1411.04 88.776C1408.82 90.3707 1406.22 91.5147 1403.24 92.208C1400.33 92.9707 1396.66 93.352 1392.22 93.352C1387.3 93.352 1383.24 92.9013 1380.05 92C1376.93 91.0987 1374.26 89.6427 1372.04 87.632C1370.03 85.8987 1368.58 83.784 1367.68 81.288C1366.77 78.792 1366.32 75.672 1366.32 71.928V68.08V46.552ZM1396.28 45.2V43.848C1396.28 42.3227 1396.24 41.2133 1396.17 40.52C1396.1 39.8267 1396 39.2027 1395.86 38.648C1395.58 37.8853 1395.1 37.296 1394.4 36.88C1393.78 36.464 1393.05 36.256 1392.22 36.256C1391.39 36.256 1390.62 36.464 1389.93 36.88C1389.31 37.296 1388.86 37.8853 1388.58 38.648C1388.37 39.2027 1388.23 39.8613 1388.16 40.624C1388.09 41.3173 1388.06 42.392 1388.06 43.848V45.2V69.432V70.888C1388.06 72.344 1388.09 73.4187 1388.16 74.112C1388.23 74.8053 1388.37 75.4293 1388.58 75.984C1388.86 76.7467 1389.31 77.3707 1389.93 77.856C1390.62 78.272 1391.39 78.48 1392.22 78.48C1393.05 78.48 1393.78 78.272 1394.4 77.856C1395.1 77.3707 1395.58 76.7467 1395.86 75.984C1396 75.4293 1396.1 74.8053 1396.17 74.112C1396.24 73.4187 1396.28 72.344 1396.28 70.888V69.432V45.2ZM1425.92 79.728C1427.1 79.1733 1427.86 78.48 1428.2 77.648C1428.55 76.816 1428.72 75.3253 1428.72 73.176V72.136V42.6V41.56C1428.72 39.3413 1428.55 37.816 1428.2 36.984C1427.86 36.152 1427.1 35.4587 1425.92 34.904V22.632H1455.97H1458.36C1462.11 22.7013 1465.12 22.9787 1467.41 23.464C1469.77 23.88 1471.82 24.6427 1473.55 25.752C1478.4 28.9413 1480.83 34.1413 1480.83 41.352C1480.83 49.8107 1477.36 55.1493 1470.43 57.368C1472.16 57.8533 1473.58 58.408 1474.69 59.032C1475.87 59.656 1476.81 60.4187 1477.5 61.32C1478.19 62.152 1478.68 63.192 1478.96 64.44C1479.3 65.688 1479.48 67.1787 1479.48 68.912V70.888V72.552C1479.48 74.9787 1479.65 76.6773 1480 77.648C1480.34 78.6187 1481.07 79.312 1482.18 79.728V92H1458.88C1458.4 89.8507 1458.05 87.8053 1457.84 85.864C1457.71 83.8533 1457.64 81.5307 1457.64 78.896V76.296V75.36V74.528C1457.64 74.1813 1457.64 73.8693 1457.64 73.592C1457.71 73.2453 1457.74 72.968 1457.74 72.76C1457.74 70.6107 1457.5 69.016 1457.01 67.976C1456.6 66.8667 1455.83 66.0693 1454.72 65.584C1454.24 65.3067 1453.72 65.168 1453.16 65.168C1452.61 65.0987 1451.64 65.064 1450.25 65.064V72.136V73.176C1450.25 75.3253 1450.39 76.816 1450.67 77.648C1451.02 78.4107 1451.78 79.104 1452.96 79.728V92H1425.92V79.728ZM1450.25 51.232H1451.4H1452.96C1455.11 51.1627 1456.56 50.608 1457.32 49.568C1458.16 48.528 1458.57 46.6907 1458.57 44.056C1458.57 41.2827 1458.09 39.4453 1457.12 38.544C1456.22 37.6427 1454.31 37.192 1451.4 37.192H1450.25V51.232ZM1503.24 79.728C1504.63 78.9653 1505.56 78.1333 1506.05 77.232C1506.6 76.2613 1506.88 74.8053 1506.88 72.864V71.72V36.88C1505.29 37.0187 1504.18 37.4 1503.55 38.024C1503 38.648 1502.72 39.8267 1502.72 41.56V42.288V54.144H1487.33V22.632H1547.13V54.144H1531.74V42.288V41.56C1531.74 39.8267 1531.46 38.648 1530.91 38.024C1530.35 37.4 1529.28 37.0187 1527.68 36.88V71.72V72.864C1527.68 74.8053 1527.92 76.2613 1528.41 77.232C1528.9 78.1333 1529.87 78.9653 1531.32 79.728V92H1503.24V79.728ZM1590.49 22.632L1600.48 71.616C1601.03 74.32 1601.55 76.2267 1602.04 77.336C1602.59 78.4453 1603.36 79.2427 1604.33 79.728V92H1577.18V79.728C1578.78 78.7573 1579.57 77.5093 1579.57 75.984C1579.57 75.776 1579.57 75.568 1579.57 75.36C1579.57 75.0827 1579.5 74.7707 1579.37 74.424L1579.26 73.904H1568.86C1568.72 74.5973 1568.62 75.0827 1568.55 75.36C1568.55 75.568 1568.55 75.776 1568.55 75.984C1568.55 77.7867 1569.49 79.0347 1571.36 79.728V92H1547.44V79.728C1548.41 78.9653 1549.07 78.1333 1549.41 77.232C1549.76 76.3307 1550.14 74.7707 1550.56 72.552L1559.92 22.632H1590.49ZM1577.29 61.632L1575.1 49.36C1574.96 48.3893 1574.86 47.7307 1574.79 47.384C1574.72 46.968 1574.62 46.3787 1574.48 45.616C1574.34 44.992 1574.2 44.1947 1574.06 43.224C1573.99 42.2533 1573.92 41.4907 1573.85 40.936L1573.65 39.792H1573.44C1573.3 41.3173 1573.13 42.912 1572.92 44.576C1572.78 46.1707 1572.57 47.7653 1572.29 49.36L1570.63 61.632H1577.29ZM1609.14 79.728C1610.31 79.1733 1611.08 78.48 1611.42 77.648C1611.77 76.816 1611.94 75.3253 1611.94 73.176V72.136V42.6V41.56C1611.94 39.3413 1611.77 37.816 1611.42 36.984C1611.08 36.152 1610.31 35.4587 1609.14 34.904V22.632H1636.8V34.904C1635.48 35.3893 1634.58 36.0827 1634.1 36.984C1633.68 37.8853 1633.47 39.4107 1633.47 41.56V42.6V77.128H1633.89H1634.2C1636.63 77.0587 1638.26 76.6427 1639.09 75.88C1639.99 75.048 1640.44 73.5573 1640.44 71.408V70.264V58.512H1659.47V92H1609.14V79.728Z" fill="#F4B23E"/>
</svg>
