<svg width="82" height="40" viewBox="0 0 82 40" fill="none" xmlns="http://www.w3.org/2000/svg">
<path d="M0 15.1529C0.262157 15.0057 0.431789 14.8125 0.508894 14.5732C0.585999 14.334 0.624551 13.9476 0.624551 13.414V13.138V5.29936V5.02336C0.624551 4.45294 0.578288 4.05733 0.485762 3.83652C0.408657 3.59731 0.246736 3.40411 0 3.2569V0H5.89854V3.2569C5.69807 3.40411 5.56699 3.56051 5.5053 3.72612C5.44362 3.87332 5.41278 4.13093 5.41278 4.49894V5.02336V5.35457V7.17622H7.2633V5.35457V5.02336V4.55414C7.2633 4.16773 7.23246 3.89172 7.17077 3.72612C7.10909 3.56051 6.9703 3.40411 6.75441 3.2569V0H12.6529V3.2569C12.4062 3.40411 12.2366 3.59731 12.1441 3.83652C12.0669 4.07573 12.0284 4.46214 12.0284 4.99575V5.29936V13.138V13.414C12.0284 13.9844 12.0669 14.38 12.1441 14.6008C12.2212 14.8217 12.3908 15.0057 12.6529 15.1529V18.4098H6.75441V15.1529C6.9703 15.0057 7.10909 14.8585 7.17077 14.7113C7.23246 14.564 7.2633 14.3156 7.2633 13.966V13.414V13.0552V10.6539H5.41278V13.0552V13.414V13.9108C5.39736 14.2788 5.42049 14.5456 5.48217 14.7113C5.55928 14.8769 5.69807 15.0241 5.89854 15.1529V18.4098H0V15.1529Z" fill="#F6F6F6"/>
<path d="M14.1861 15.1529C14.4483 15.0057 14.6179 14.8217 14.695 14.6008C14.7721 14.38 14.8107 13.9844 14.8107 13.414V13.138V5.29936V5.02336C14.8107 4.43454 14.7721 4.02972 14.695 3.80892C14.6179 3.58811 14.4483 3.40411 14.1861 3.2569V0H20.2003V3.2569C19.9382 3.40411 19.7685 3.59731 19.6914 3.83652C19.6298 4.05733 19.5989 4.45294 19.5989 5.02336V5.29936V13.138V13.414C19.5989 13.7084 19.6066 13.9476 19.622 14.1316C19.6375 14.3156 19.6683 14.472 19.7146 14.6008C19.7608 14.7297 19.8225 14.8401 19.8996 14.9321C19.9767 15.0057 20.077 15.0793 20.2003 15.1529V18.4098H14.1861V15.1529Z" fill="#F6F6F6"/>
<path d="M24.992 15.1529C25.3004 14.9505 25.5086 14.7297 25.6165 14.4904C25.7399 14.2328 25.8016 13.8464 25.8016 13.3312V13.0276V3.78132C25.4469 3.81812 25.2002 3.91932 25.0614 4.08493C24.938 4.25053 24.8763 4.56334 24.8763 5.02336V5.21656V8.36306H21.4529V0H34.7535V8.36306H31.33V5.21656V5.02336C31.33 4.56334 31.2683 4.25053 31.145 4.08493C31.0216 3.91932 30.7826 3.81812 30.4279 3.78132V13.0276V13.3312C30.4279 13.8464 30.4819 14.2328 30.5898 14.4904C30.6978 14.7297 30.9137 14.9505 31.2375 15.1529V18.4098H24.992V15.1529Z" fill="#F6F6F6"/>
<path d="M45.2321 15.1529C45.5405 14.9505 45.7487 14.7297 45.8566 14.4904C45.98 14.2328 46.0417 13.8464 46.0417 13.3312V13.0276V3.78132C45.687 3.81812 45.4403 3.91932 45.3015 4.08493C45.1781 4.25053 45.1164 4.56334 45.1164 5.02336V5.21656V8.36306H41.693V0H54.9936V8.36306H51.5701V5.21656V5.02336C51.5701 4.56334 51.5084 4.25053 51.3851 4.08493C51.2617 3.91932 51.0227 3.81812 50.668 3.78132V13.0276V13.3312C50.668 13.8464 50.722 14.2328 50.8299 14.4904C50.9379 14.7297 51.1537 14.9505 51.4776 15.1529V18.4098H45.2321V15.1529Z" fill="#F6F6F6"/>
<path d="M56.225 15.1529C56.4871 15.0057 56.6568 14.8125 56.7339 14.5732C56.811 14.334 56.8495 13.9476 56.8495 13.414V13.138V5.29936V5.02336C56.8495 4.45294 56.8033 4.05733 56.7107 3.83652C56.6336 3.59731 56.4717 3.40411 56.225 3.2569V0H62.1235V3.2569C61.923 3.40411 61.792 3.56051 61.7303 3.72612C61.6686 3.87332 61.6377 4.13093 61.6377 4.49894V5.02336V5.35457V7.17622H63.4883V5.35457V5.02336V4.55414C63.4883 4.16773 63.4574 3.89172 63.3957 3.72612C63.3341 3.56051 63.1953 3.40411 62.9794 3.2569V0H68.8779V3.2569C68.6312 3.40411 68.4615 3.59731 68.369 3.83652C68.2919 4.07573 68.2534 4.46214 68.2534 4.99575V5.29936V13.138V13.414C68.2534 13.9844 68.2919 14.38 68.369 14.6008C68.4461 14.8217 68.6158 15.0057 68.8779 15.1529V18.4098H62.9794V15.1529C63.1953 15.0057 63.3341 14.8585 63.3957 14.7113C63.4574 14.564 63.4883 14.3156 63.4883 13.966V13.414V13.0552V10.6539H61.6377V13.0552V13.414V13.9108C61.6223 14.2788 61.6455 14.5456 61.7071 14.7113C61.7842 14.8769 61.923 15.0241 62.1235 15.1529V18.4098H56.225V15.1529Z" fill="#F6F6F6"/>
<path d="M70.4111 15.1529C70.6733 15.0057 70.8429 14.8125 70.92 14.5732C70.9971 14.3156 71.0357 13.8372 71.0357 13.138V5.29936L71.0125 4.71975C71.0125 4.25973 70.974 3.93772 70.8969 3.75372C70.8198 3.56971 70.6578 3.40411 70.4111 3.2569V0H82V6.15499H77.5356V6.04459V5.74098C77.5356 5.09696 77.4354 4.63694 77.2349 4.36094C77.0499 4.08493 76.726 3.94692 76.2634 3.94692H76.0552H75.8239V7.09342H78.8772V10.7091H75.8239V14.4628H75.9164H76.0089C76.3174 14.4628 76.5718 14.4352 76.7723 14.38C76.9727 14.3248 77.127 14.2236 77.2349 14.0764C77.3583 13.9292 77.4354 13.736 77.4662 13.4968C77.5125 13.2392 77.5356 12.908 77.5356 12.5032V12.0616V11.6752H82V18.4098H70.4111V15.1529Z" fill="#F6F6F6"/>
<path d="M0 36.3843C0.138789 36.3107 0.246736 36.2371 0.323841 36.1635C0.400946 36.0715 0.462631 35.9611 0.508894 35.8323C0.555157 35.7035 0.585999 35.5471 0.60142 35.3631C0.616841 35.1607 0.624551 34.9122 0.624551 34.6178V34.3694V26.5308V26.2548C0.624551 25.666 0.585999 25.2611 0.508894 25.0403C0.431789 24.8195 0.262157 24.6355 0 24.4883V21.2314H11.1957V27.6624H7.05512V26.7516C7.05512 26.4388 7.03198 26.1812 6.98572 25.9788C6.95488 25.7764 6.88548 25.62 6.77754 25.5096C6.66959 25.3807 6.51538 25.2979 6.31491 25.2611C6.12986 25.2059 5.89083 25.1783 5.59783 25.1783H5.41278V28.6284H8.46614V32.2994H5.41278V34.3694V34.6454V35.087C5.4282 35.5103 5.48988 35.8139 5.59783 35.9979C5.7212 36.1819 5.91396 36.3107 6.17612 36.3843V39.6412H0V36.3843Z" fill="#F6F6F6"/>
<path d="M12.4919 36.3843C12.7541 36.2371 12.9237 36.0531 13.0008 35.8323C13.0779 35.6115 13.1165 35.2159 13.1165 34.6454V34.3694V26.5308V26.2548C13.1165 25.666 13.0779 25.2611 13.0008 25.0403C12.9237 24.8195 12.7541 24.6355 12.4919 24.4883V21.2314H19.1769H19.709C20.5417 21.2498 21.2125 21.3234 21.7214 21.4522C22.2457 21.5626 22.7006 21.765 23.0862 22.0594C24.1656 22.9059 24.7054 24.2859 24.7054 26.1996C24.7054 28.4444 23.9343 29.8613 22.3922 30.4501C22.7777 30.5789 23.0939 30.7261 23.3406 30.8917C23.6028 31.0573 23.811 31.2597 23.9652 31.4989C24.1194 31.7197 24.2273 31.9958 24.289 32.327C24.3661 32.6582 24.4047 33.0538 24.4047 33.5138V34.0382V34.4798C24.4047 35.1238 24.4432 35.5747 24.5203 35.8323C24.5974 36.0899 24.7593 36.2739 25.0061 36.3843V39.6412H19.8246C19.7167 39.0708 19.6396 38.528 19.5933 38.0127C19.5625 37.4791 19.547 36.8627 19.547 36.1635V35.4735V35.2251V35.0042C19.547 34.9122 19.547 34.8294 19.547 34.7558C19.5625 34.6638 19.5702 34.5902 19.5702 34.535C19.5702 33.9646 19.5162 33.5414 19.4083 33.2654C19.3157 32.971 19.1461 32.7594 18.8994 32.6306C18.7914 32.557 18.6758 32.5202 18.5524 32.5202C18.429 32.5018 18.2131 32.4926 17.9047 32.4926V34.3694V34.6454C17.9047 35.2159 17.9355 35.6115 17.9972 35.8323C18.0743 36.0347 18.244 36.2187 18.5061 36.3843V39.6412H12.4919V36.3843ZM17.9047 28.8217H18.1592H18.5061C18.9842 28.8033 19.308 28.656 19.4776 28.38C19.6627 28.104 19.7552 27.6164 19.7552 26.9172C19.7552 26.1812 19.6473 25.6936 19.4314 25.4543C19.2309 25.2151 18.8068 25.0955 18.1592 25.0955H17.9047V28.8217Z" fill="#F6F6F6"/>
<path d="M26.6835 27.5796V26.5584C26.6989 25.4359 26.8223 24.5343 27.0536 23.8535C27.3003 23.1727 27.7013 22.5931 28.2564 22.1146C28.7345 21.6914 29.3051 21.3878 29.9682 21.2038C30.6313 21.0014 31.4563 20.9002 32.4432 20.9002C33.5227 20.9002 34.4094 21.0198 35.1034 21.259C35.8127 21.4798 36.4141 21.857 36.9076 22.3907C37.3548 22.8691 37.6787 23.4395 37.8791 24.1019C38.0796 24.7459 38.1799 25.5648 38.1799 26.5584V27.5796V33.293V34.3142C38.1644 35.4367 38.0333 36.3383 37.7866 37.0191C37.5553 37.6999 37.1698 38.2887 36.63 38.7856C36.1366 39.2088 35.5583 39.5124 34.8952 39.6964C34.2475 39.8988 33.4302 40 32.4432 40C31.3483 40 30.4462 39.8804 29.7368 39.6412C29.0429 39.402 28.4492 39.0156 27.9557 38.482C27.5085 38.0219 27.1847 37.4607 26.9842 36.7983C26.7837 36.1359 26.6835 35.3079 26.6835 34.3142V33.293V27.5796ZM33.3454 27.2208V26.862C33.3454 26.4572 33.3377 26.1628 33.3222 25.9788C33.3068 25.7948 33.2837 25.6292 33.2528 25.482C33.1912 25.2795 33.0832 25.1231 32.929 25.0127C32.7902 24.9023 32.6283 24.8471 32.4432 24.8471C32.2582 24.8471 32.0885 24.9023 31.9343 25.0127C31.7955 25.1231 31.6953 25.2795 31.6336 25.482C31.5874 25.6292 31.5565 25.804 31.5411 26.0064C31.5257 26.1904 31.518 26.4756 31.518 26.862V27.2208V33.6518V34.0382C31.518 34.4246 31.5257 34.7098 31.5411 34.8938C31.5565 35.0778 31.5874 35.2435 31.6336 35.3907C31.6953 35.5931 31.7955 35.7587 31.9343 35.8875C32.0885 35.9979 32.2582 36.0531 32.4432 36.0531C32.6283 36.0531 32.7902 35.9979 32.929 35.8875C33.0832 35.7587 33.1912 35.5931 33.2528 35.3907C33.2837 35.2435 33.3068 35.0778 33.3222 34.8938C33.3377 34.7098 33.3454 34.4246 33.3454 34.0382V33.6518V27.2208Z" fill="#F6F6F6"/>
<path d="M51.4575 27.6624H46.8312V26.4756C46.8312 25.3899 46.5305 24.8471 45.9291 24.8471C45.6515 24.8471 45.4279 24.9667 45.2583 25.2059C45.0886 25.4452 45.0038 25.7672 45.0038 26.172V26.6412V33.6518V34.0382C45.0193 34.4246 45.027 34.7098 45.027 34.8938C45.0424 35.0778 45.0732 35.2435 45.1195 35.3907C45.2429 35.8323 45.5204 36.0531 45.9522 36.0531C46.2915 36.0531 46.5305 35.9151 46.6693 35.6391C46.8081 35.3631 46.8775 34.903 46.8775 34.259V32.9066H46.0216V29.1805H51.4575V38.0127C50.8098 38.6936 50.0311 39.1996 49.1212 39.5308C48.2268 39.8436 47.1474 40 45.8828 40C44.6337 40 43.6082 39.8252 42.8063 39.4756C42.0044 39.126 41.3799 38.574 40.9327 37.8195C40.7014 37.4515 40.524 37.0559 40.4007 36.6327C40.2927 36.1911 40.2233 35.6483 40.1925 35.0042C40.1925 34.8938 40.1848 34.8018 40.1693 34.7282C40.1693 34.6546 40.1693 34.5626 40.1693 34.4522C40.1693 34.3418 40.1693 34.2038 40.1693 34.0382C40.1693 33.8542 40.1693 33.6058 40.1693 33.293V27.5796V26.5584C40.1848 25.4359 40.3081 24.5343 40.5394 23.8535C40.7862 23.1727 41.1871 22.5931 41.7423 22.1146C42.6521 21.305 43.9706 20.9002 45.6978 20.9002C46.8389 20.9002 47.8953 21.075 48.8668 21.4246C49.8383 21.7742 50.7019 22.2987 51.4575 22.9979V27.6624Z" fill="#F6F6F6"/>
</svg>
